<?xml version="1.0" encoding="UTF-8"?>
<!DOCTYPE svg PUBLIC "-//W3C//DTD SVG 1.1//EN" "http://www.w3.org/Graphics/SVG/1.1/DTD/svg11.dtd">
<svg xmlns="http://www.w3.org/2000/svg" version="1.1" width="2560px" height="1463px" style="shape-rendering:geometricPrecision; text-rendering:geometricPrecision; image-rendering:optimizeQuality; fill-rule:evenodd; clip-rule:evenodd" xmlns:xlink="http://www.w3.org/1999/xlink">
<g><path style="opacity:1" fill="#239f40" d="M -0.5,-0.5 C 852.833,-0.5 1706.17,-0.5 2559.5,-0.5C 2559.5,162.167 2559.5,324.833 2559.5,487.5C 2548.17,487.5 2536.83,487.5 2525.5,487.5C 2525.5,483.5 2525.5,479.5 2525.5,475.5C 2491.5,475.5 2457.5,475.5 2423.5,475.5C 2422.52,478.962 2422.19,482.629 2422.5,486.5C 2418.83,486.5 2415.17,486.5 2411.5,486.5C 2411.5,482.833 2411.5,479.167 2411.5,475.5C 2377.5,475.5 2343.5,475.5 2309.5,475.5C 2308.52,478.962 2308.19,482.629 2308.5,486.5C 2305.17,486.5 2301.83,486.5 2298.5,486.5C 2298.81,482.629 2298.48,478.962 2297.5,475.5C 2263.5,475.5 2229.5,475.5 2195.5,475.5C 2195.5,479.167 2195.5,482.833 2195.5,486.5C 2191.83,486.5 2188.17,486.5 2184.5,486.5C 2184.81,482.629 2184.48,478.962 2183.5,475.5C 2149.5,475.5 2115.5,475.5 2081.5,475.5C 2081.5,479.5 2081.5,483.5 2081.5,487.5C 2077.83,487.5 2074.17,487.5 2070.5,487.5C 2070.5,483.5 2070.5,479.5 2070.5,475.5C 2036.17,475.5 2001.83,475.5 1967.5,475.5C 1967.5,479.5 1967.5,483.5 1967.5,487.5C 1963.83,487.5 1960.17,487.5 1956.5,487.5C 1956.5,483.5 1956.5,479.5 1956.5,475.5C 1922.5,475.5 1888.5,475.5 1854.5,475.5C 1853.52,478.962 1853.19,482.629 1853.5,486.5C 1849.83,486.5 1846.17,486.5 1842.5,486.5C 1842.5,482.833 1842.5,479.167 1842.5,475.5C 1808.5,475.5 1774.5,475.5 1740.5,475.5C 1740.5,479.167 1740.5,482.833 1740.5,486.5C 1736.83,486.5 1733.17,486.5 1729.5,486.5C 1729.81,482.629 1729.48,478.962 1728.5,475.5C 1694.5,475.5 1660.5,475.5 1626.5,475.5C 1626.5,479.5 1626.5,483.5 1626.5,487.5C 1622.83,487.5 1619.17,487.5 1615.5,487.5C 1615.5,483.5 1615.5,479.5 1615.5,475.5C 1581.17,475.5 1546.83,475.5 1512.5,475.5C 1512.5,479.5 1512.5,483.5 1512.5,487.5C 1508.83,487.5 1505.17,487.5 1501.5,487.5C 1501.5,483.5 1501.5,479.5 1501.5,475.5C 1467.5,475.5 1433.5,475.5 1399.5,475.5C 1398.52,478.962 1398.19,482.629 1398.5,486.5C 1394.83,486.5 1391.17,486.5 1387.5,486.5C 1387.5,482.833 1387.5,479.167 1387.5,475.5C 1353.5,475.5 1319.5,475.5 1285.5,475.5C 1284.52,478.962 1284.19,482.629 1284.5,486.5C 1281.17,486.5 1277.83,486.5 1274.5,486.5C 1274.81,482.629 1274.48,478.962 1273.5,475.5C 1239.5,475.5 1205.5,475.5 1171.5,475.5C 1171.5,479.167 1171.5,482.833 1171.5,486.5C 1167.83,486.5 1164.17,486.5 1160.5,486.5C 1160.81,482.629 1160.48,478.962 1159.5,475.5C 1125.5,475.5 1091.5,475.5 1057.5,475.5C 1057.5,479.5 1057.5,483.5 1057.5,487.5C 1053.83,487.5 1050.17,487.5 1046.5,487.5C 1046.5,483.5 1046.5,479.5 1046.5,475.5C 1012.17,475.5 977.833,475.5 943.5,475.5C 943.5,479.5 943.5,483.5 943.5,487.5C 939.833,487.5 936.167,487.5 932.5,487.5C 932.5,483.5 932.5,479.5 932.5,475.5C 898.5,475.5 864.5,475.5 830.5,475.5C 829.518,478.962 829.185,482.629 829.5,486.5C 825.833,486.5 822.167,486.5 818.5,486.5C 818.5,482.833 818.5,479.167 818.5,475.5C 784.5,475.5 750.5,475.5 716.5,475.5C 716.5,479.167 716.5,482.833 716.5,486.5C 712.833,486.5 709.167,486.5 705.5,486.5C 705.815,482.629 705.482,478.962 704.5,475.5C 670.5,475.5 636.5,475.5 602.5,475.5C 602.5,479.5 602.5,483.5 602.5,487.5C 598.833,487.5 595.167,487.5 591.5,487.5C 591.5,483.5 591.5,479.5 591.5,475.5C 557.167,475.5 522.833,475.5 488.5,475.5C 488.5,479.5 488.5,483.5 488.5,487.5C 484.833,487.5 481.167,487.5 477.5,487.5C 477.5,483.5 477.5,479.5 477.5,475.5C 443.5,475.5 409.5,475.5 375.5,475.5C 374.518,478.962 374.185,482.629 374.5,486.5C 370.833,486.5 367.167,486.5 363.5,486.5C 363.5,482.833 363.5,479.167 363.5,475.5C 329.5,475.5 295.5,475.5 261.5,475.5C 260.518,478.962 260.185,482.629 260.5,486.5C 257.167,486.5 253.833,486.5 250.5,486.5C 250.815,482.629 250.482,478.962 249.5,475.5C 215.5,475.5 181.5,475.5 147.5,475.5C 147.5,479.167 147.5,482.833 147.5,486.5C 143.833,486.5 140.167,486.5 136.5,486.5C 136.815,482.629 136.482,478.962 135.5,475.5C 101.5,475.5 67.5,475.5 33.5,475.5C 33.5,479.5 33.5,483.5 33.5,487.5C 22.1667,487.5 10.8333,487.5 -0.5,487.5C -0.5,324.833 -0.5,162.167 -0.5,-0.5 Z"/></g>
<g><path style="opacity:1" fill="#fefefe" d="M 33.5,407.5 C 82.8333,407.5 132.167,407.5 181.5,407.5C 181.5,411.167 181.5,414.833 181.5,418.5C 132.167,418.5 82.8333,418.5 33.5,418.5C 33.5,414.833 33.5,411.167 33.5,407.5 Z"/></g>
<g><path style="opacity:1" fill="#fbfdfc" d="M 193.5,407.5 C 196.833,407.5 200.167,407.5 203.5,407.5C 203.5,422.833 203.5,438.167 203.5,453.5C 207.702,453.817 211.702,453.483 215.5,452.5C 215.5,437.5 215.5,422.5 215.5,407.5C 219.5,407.5 223.5,407.5 227.5,407.5C 227.5,422.833 227.5,438.167 227.5,453.5C 231.167,453.5 234.833,453.5 238.5,453.5C 238.5,438.167 238.5,422.833 238.5,407.5C 242.167,407.5 245.833,407.5 249.5,407.5C 249.5,426.167 249.5,444.833 249.5,463.5C 230.833,463.5 212.167,463.5 193.5,463.5C 193.825,455.981 193.492,448.648 192.5,441.5C 181.167,441.5 169.833,441.5 158.5,441.5C 158.5,445.167 158.5,448.833 158.5,452.5C 166.167,452.5 173.833,452.5 181.5,452.5C 181.5,456.5 181.5,460.5 181.5,464.5C 170.167,464.5 158.833,464.5 147.5,464.5C 147.5,453.167 147.5,441.833 147.5,430.5C 162.833,430.5 178.167,430.5 193.5,430.5C 193.5,422.833 193.5,415.167 193.5,407.5 Z"/></g>
<g><path style="opacity:1" fill="#c9e7d0" d="M 203.5,407.5 C 204.496,422.324 204.829,437.324 204.5,452.5C 208.167,452.5 211.833,452.5 215.5,452.5C 211.702,453.483 207.702,453.817 203.5,453.5C 203.5,438.167 203.5,422.833 203.5,407.5 Z"/></g>
<g><path style="opacity:1" fill="#fefffe" d="M 408.5,407.5 C 408.5,411.167 408.5,414.833 408.5,418.5C 359.5,418.5 310.5,418.5 261.5,418.5C 261.5,414.833 261.5,411.167 261.5,407.5C 310.5,407.5 359.5,407.5 408.5,407.5 Z"/></g>
<g><path style="opacity:1" fill="#fdfefd" d="M 431.5,407.5 C 431.5,422.833 431.5,438.167 431.5,453.5C 435.5,453.5 439.5,453.5 443.5,453.5C 443.5,438.167 443.5,422.833 443.5,407.5C 447.167,407.5 450.833,407.5 454.5,407.5C 454.5,422.833 454.5,438.167 454.5,453.5C 458.437,453.793 462.27,453.46 466,452.5C 466.5,437.504 466.667,422.504 466.5,407.5C 469.833,407.5 473.167,407.5 476.5,407.5C 476.5,426.167 476.5,444.833 476.5,463.5C 457.833,463.5 439.167,463.5 420.5,463.5C 420.5,456.167 420.5,448.833 420.5,441.5C 409.167,441.5 397.833,441.5 386.5,441.5C 386.5,445.167 386.5,448.833 386.5,452.5C 393.648,453.492 400.981,453.825 408.5,453.5C 408.5,457.167 408.5,460.833 408.5,464.5C 397.167,464.5 385.833,464.5 374.5,464.5C 374.5,453.167 374.5,441.833 374.5,430.5C 389.833,430.5 405.167,430.5 420.5,430.5C 420.5,422.833 420.5,415.167 420.5,407.5C 424.167,407.5 427.833,407.5 431.5,407.5 Z"/></g>
<g><path style="opacity:1" fill="#71c082" d="M 431.5,407.5 C 432.496,422.324 432.829,437.324 432.5,452.5C 435.833,452.5 439.167,452.5 442.5,452.5C 442.171,437.324 442.504,422.324 443.5,407.5C 443.5,422.833 443.5,438.167 443.5,453.5C 439.5,453.5 435.5,453.5 431.5,453.5C 431.5,438.167 431.5,422.833 431.5,407.5 Z"/></g>
<g><path style="opacity:1" fill="#fefefe" d="M 488.5,407.5 C 537.833,407.5 587.167,407.5 636.5,407.5C 636.5,411.167 636.5,414.833 636.5,418.5C 587.167,418.5 537.833,418.5 488.5,418.5C 488.5,414.833 488.5,411.167 488.5,407.5 Z"/></g>
<g><path style="opacity:1" fill="#fbfdfb" d="M 648.5,407.5 C 652.167,407.5 655.833,407.5 659.5,407.5C 659.5,422.5 659.5,437.5 659.5,452.5C 663.167,452.5 666.833,452.5 670.5,452.5C 670.5,437.5 670.5,422.5 670.5,407.5C 674.5,407.5 678.5,407.5 682.5,407.5C 682.5,422.5 682.5,437.5 682.5,452.5C 686.167,452.5 689.833,452.5 693.5,452.5C 693.5,437.5 693.5,422.5 693.5,407.5C 697.167,407.5 700.833,407.5 704.5,407.5C 704.5,426.5 704.5,445.5 704.5,464.5C 685.833,464.5 667.167,464.5 648.5,464.5C 648.5,456.833 648.5,449.167 648.5,441.5C 637.167,441.5 625.833,441.5 614.5,441.5C 613.517,445.298 613.183,449.298 613.5,453.5C 621.167,453.5 628.833,453.5 636.5,453.5C 636.5,457.167 636.5,460.833 636.5,464.5C 625.167,464.5 613.833,464.5 602.5,464.5C 602.5,453.167 602.5,441.833 602.5,430.5C 617.833,430.5 633.167,430.5 648.5,430.5C 648.5,422.833 648.5,415.167 648.5,407.5 Z"/></g>
<g><path style="opacity:1" fill="#fefefe" d="M 716.5,407.5 C 765.833,407.5 815.167,407.5 864.5,407.5C 864.5,411.167 864.5,414.833 864.5,418.5C 815.167,418.5 765.833,418.5 716.5,418.5C 716.5,414.833 716.5,411.167 716.5,407.5 Z"/></g>
<g><path style="opacity:1" fill="#fdfefd" d="M 886.5,407.5 C 886.5,422.833 886.5,438.167 886.5,453.5C 890.702,453.817 894.702,453.483 898.5,452.5C 898.5,437.5 898.5,422.5 898.5,407.5C 902.167,407.5 905.833,407.5 909.5,407.5C 909.5,422.833 909.5,438.167 909.5,453.5C 913.5,453.5 917.5,453.5 921.5,453.5C 921.5,438.167 921.5,422.833 921.5,407.5C 925.167,407.5 928.833,407.5 932.5,407.5C 932.5,426.5 932.5,445.5 932.5,464.5C 913.5,464.5 894.5,464.5 875.5,464.5C 875.5,456.833 875.5,449.167 875.5,441.5C 864.167,441.5 852.833,441.5 841.5,441.5C 841.5,445.5 841.5,449.5 841.5,453.5C 849.167,453.5 856.833,453.5 864.5,453.5C 864.5,457.167 864.5,460.833 864.5,464.5C 853.167,464.5 841.833,464.5 830.5,464.5C 830.5,453.167 830.5,441.833 830.5,430.5C 845.5,430.5 860.5,430.5 875.5,430.5C 875.5,422.833 875.5,415.167 875.5,407.5C 879.167,407.5 882.833,407.5 886.5,407.5 Z"/></g>
<g><path style="opacity:1" fill="#8ccd9b" d="M 886.5,407.5 C 887.496,422.324 887.829,437.324 887.5,452.5C 891.167,452.5 894.833,452.5 898.5,452.5C 894.702,453.483 890.702,453.817 886.5,453.5C 886.5,438.167 886.5,422.833 886.5,407.5 Z"/></g>
<g><path style="opacity:1" fill="#73c184" d="M 909.5,407.5 C 910.496,422.324 910.829,437.324 910.5,452.5C 913.833,452.5 917.167,452.5 920.5,452.5C 920.171,437.324 920.504,422.324 921.5,407.5C 921.5,422.833 921.5,438.167 921.5,453.5C 917.5,453.5 913.5,453.5 909.5,453.5C 909.5,438.167 909.5,422.833 909.5,407.5 Z"/></g>
<g><path style="opacity:1" fill="#fefffe" d="M 944.5,407.5 C 993.5,407.5 1042.5,407.5 1091.5,407.5C 1091.5,411.167 1091.5,414.833 1091.5,418.5C 1042.5,418.5 993.5,418.5 944.5,418.5C 944.5,414.833 944.5,411.167 944.5,407.5 Z"/></g>
<g><path style="opacity:1" fill="#f8fcf9" d="M 1103.5,407.5 C 1107.17,407.5 1110.83,407.5 1114.5,407.5C 1114.5,422.5 1114.5,437.5 1114.5,452.5C 1118.17,452.5 1121.83,452.5 1125.5,452.5C 1125.5,437.5 1125.5,422.5 1125.5,407.5C 1129.5,407.5 1133.5,407.5 1137.5,407.5C 1137.5,422.5 1137.5,437.5 1137.5,452.5C 1141.17,452.5 1144.83,452.5 1148.5,452.5C 1148.5,437.5 1148.5,422.5 1148.5,407.5C 1152.5,407.5 1156.5,407.5 1160.5,407.5C 1160.5,426.5 1160.5,445.5 1160.5,464.5C 1141.5,464.5 1122.5,464.5 1103.5,464.5C 1103.5,456.833 1103.5,449.167 1103.5,441.5C 1091.83,441.5 1080.17,441.5 1068.5,441.5C 1068.19,445.371 1068.52,449.038 1069.5,452.5C 1076.83,452.5 1084.17,452.5 1091.5,452.5C 1091.5,456.5 1091.5,460.5 1091.5,464.5C 1080.17,464.5 1068.83,464.5 1057.5,464.5C 1057.5,453.167 1057.5,441.833 1057.5,430.5C 1072.83,430.5 1088.17,430.5 1103.5,430.5C 1103.5,422.833 1103.5,415.167 1103.5,407.5 Z"/></g>
<g><path style="opacity:1" fill="#fefefe" d="M 1171.5,407.5 C 1220.83,407.5 1270.17,407.5 1319.5,407.5C 1319.5,411.167 1319.5,414.833 1319.5,418.5C 1270.17,418.5 1220.83,418.5 1171.5,418.5C 1171.5,414.833 1171.5,411.167 1171.5,407.5 Z"/></g>
<g><path style="opacity:1" fill="#fbfdfb" d="M 1364.5,407.5 C 1364.5,422.833 1364.5,438.167 1364.5,453.5C 1368.5,453.5 1372.5,453.5 1376.5,453.5C 1376.5,438.167 1376.5,422.833 1376.5,407.5C 1380.17,407.5 1383.83,407.5 1387.5,407.5C 1387.5,426.5 1387.5,445.5 1387.5,464.5C 1368.5,464.5 1349.5,464.5 1330.5,464.5C 1330.5,456.833 1330.5,449.167 1330.5,441.5C 1319.17,441.5 1307.83,441.5 1296.5,441.5C 1296.5,445.167 1296.5,448.833 1296.5,452.5C 1304.17,452.5 1311.83,452.5 1319.5,452.5C 1319.5,456.5 1319.5,460.5 1319.5,464.5C 1308.17,464.5 1296.83,464.5 1285.5,464.5C 1285.5,453.167 1285.5,441.833 1285.5,430.5C 1300.5,430.5 1315.5,430.5 1330.5,430.5C 1330.5,422.833 1330.5,415.167 1330.5,407.5C 1334.5,407.5 1338.5,407.5 1342.5,407.5C 1342.5,422.5 1342.5,437.5 1342.5,452.5C 1346.17,452.5 1349.83,452.5 1353.5,452.5C 1353.5,437.5 1353.5,422.5 1353.5,407.5C 1357.17,407.5 1360.83,407.5 1364.5,407.5 Z"/></g>
<g><path style="opacity:1" fill="#6fc081" d="M 1364.5,407.5 C 1365.5,422.324 1365.83,437.324 1365.5,452.5C 1368.83,452.5 1372.17,452.5 1375.5,452.5C 1375.17,437.324 1375.5,422.324 1376.5,407.5C 1376.5,422.833 1376.5,438.167 1376.5,453.5C 1372.5,453.5 1368.5,453.5 1364.5,453.5C 1364.5,438.167 1364.5,422.833 1364.5,407.5 Z"/></g>
<g><path style="opacity:1" fill="#fefffe" d="M 1399.5,407.5 C 1448.5,407.5 1497.5,407.5 1546.5,407.5C 1546.5,411.167 1546.5,414.833 1546.5,418.5C 1497.5,418.5 1448.5,418.5 1399.5,418.5C 1399.5,414.833 1399.5,411.167 1399.5,407.5 Z"/></g>
<g><path style="opacity:1" fill="#fafdfb" d="M 1558.5,407.5 C 1562.17,407.5 1565.83,407.5 1569.5,407.5C 1569.5,422.5 1569.5,437.5 1569.5,452.5C 1573.3,453.483 1577.3,453.817 1581.5,453.5C 1581.5,438.167 1581.5,422.833 1581.5,407.5C 1585.17,407.5 1588.83,407.5 1592.5,407.5C 1592.5,422.5 1592.5,437.5 1592.5,452.5C 1596.17,452.5 1599.83,452.5 1603.5,452.5C 1603.5,437.5 1603.5,422.5 1603.5,407.5C 1607.5,407.5 1611.5,407.5 1615.5,407.5C 1615.5,426.5 1615.5,445.5 1615.5,464.5C 1596.5,464.5 1577.5,464.5 1558.5,464.5C 1558.5,456.833 1558.5,449.167 1558.5,441.5C 1547.17,441.5 1535.83,441.5 1524.5,441.5C 1524.5,445.167 1524.5,448.833 1524.5,452.5C 1531.83,452.5 1539.17,452.5 1546.5,452.5C 1546.5,456.167 1546.5,459.833 1546.5,463.5C 1535.5,463.5 1524.5,463.5 1513.5,463.5C 1513.5,452.5 1513.5,441.5 1513.5,430.5C 1528.5,430.5 1543.5,430.5 1558.5,430.5C 1558.5,422.833 1558.5,415.167 1558.5,407.5 Z"/></g>
<g><path style="opacity:1" fill="#90ce9f" d="M 1581.5,407.5 C 1581.5,422.833 1581.5,438.167 1581.5,453.5C 1577.3,453.817 1573.3,453.483 1569.5,452.5C 1573.17,452.5 1576.83,452.5 1580.5,452.5C 1580.17,437.324 1580.5,422.324 1581.5,407.5 Z"/></g>
<g><path style="opacity:1" fill="#fefefe" d="M 1626.5,407.5 C 1675.83,407.5 1725.17,407.5 1774.5,407.5C 1774.5,411.167 1774.5,414.833 1774.5,418.5C 1725.17,418.5 1675.83,418.5 1626.5,418.5C 1626.5,414.833 1626.5,411.167 1626.5,407.5 Z"/></g>
<g><path style="opacity:1" fill="#fbfdfc" d="M 1819.5,407.5 C 1819.5,422.833 1819.5,438.167 1819.5,453.5C 1823.7,453.817 1827.7,453.483 1831.5,452.5C 1831.5,437.5 1831.5,422.5 1831.5,407.5C 1835.17,407.5 1838.83,407.5 1842.5,407.5C 1842.5,426.167 1842.5,444.833 1842.5,463.5C 1823.83,463.5 1805.17,463.5 1786.5,463.5C 1786.82,455.981 1786.49,448.648 1785.5,441.5C 1774.17,441.5 1762.83,441.5 1751.5,441.5C 1751.5,445.167 1751.5,448.833 1751.5,452.5C 1759.17,452.5 1766.83,452.5 1774.5,452.5C 1774.5,456.5 1774.5,460.5 1774.5,464.5C 1763.17,464.5 1751.83,464.5 1740.5,464.5C 1740.5,453.167 1740.5,441.833 1740.5,430.5C 1755.5,430.5 1770.5,430.5 1785.5,430.5C 1785.5,422.833 1785.5,415.167 1785.5,407.5C 1789.5,407.5 1793.5,407.5 1797.5,407.5C 1797.5,422.5 1797.5,437.5 1797.5,452.5C 1801.17,452.5 1804.83,452.5 1808.5,452.5C 1808.5,437.5 1808.5,422.5 1808.5,407.5C 1812.17,407.5 1815.83,407.5 1819.5,407.5 Z"/></g>
<g><path style="opacity:1" fill="#87cb98" d="M 1819.5,407.5 C 1820.5,422.324 1820.83,437.324 1820.5,452.5C 1824.17,452.5 1827.83,452.5 1831.5,452.5C 1827.7,453.483 1823.7,453.817 1819.5,453.5C 1819.5,438.167 1819.5,422.833 1819.5,407.5 Z"/></g>
<g><path style="opacity:1" fill="#fefffe" d="M 1854.5,407.5 C 1903.5,407.5 1952.5,407.5 2001.5,407.5C 2001.5,411.167 2001.5,414.833 2001.5,418.5C 1952.5,418.5 1903.5,418.5 1854.5,418.5C 1854.5,414.833 1854.5,411.167 1854.5,407.5 Z"/></g>
<g><path style="opacity:1" fill="#fcfdfc" d="M 2024.5,407.5 C 2024.5,422.833 2024.5,438.167 2024.5,453.5C 2028.5,453.5 2032.5,453.5 2036.5,453.5C 2036.5,438.167 2036.5,422.833 2036.5,407.5C 2040.17,407.5 2043.83,407.5 2047.5,407.5C 2047.5,422.5 2047.5,437.5 2047.5,452.5C 2051.17,452.5 2054.83,452.5 2058.5,452.5C 2058.5,437.5 2058.5,422.5 2058.5,407.5C 2062.17,407.5 2065.83,407.5 2069.5,407.5C 2069.5,426.167 2069.5,444.833 2069.5,463.5C 2050.83,463.5 2032.17,463.5 2013.5,463.5C 2013.5,456.167 2013.5,448.833 2013.5,441.5C 2002.17,441.5 1990.83,441.5 1979.5,441.5C 1979.5,445.167 1979.5,448.833 1979.5,452.5C 1987.02,452.175 1994.35,452.508 2001.5,453.5C 2001.5,456.833 2001.5,460.167 2001.5,463.5C 1990.5,463.5 1979.5,463.5 1968.5,463.5C 1968.5,452.5 1968.5,441.5 1968.5,430.5C 1983.5,430.5 1998.5,430.5 2013.5,430.5C 2013.5,422.833 2013.5,415.167 2013.5,407.5C 2017.17,407.5 2020.83,407.5 2024.5,407.5 Z"/></g>
<g><path style="opacity:1" fill="#71c083" d="M 2024.5,407.5 C 2025.5,422.324 2025.83,437.324 2025.5,452.5C 2028.83,452.5 2032.17,452.5 2035.5,452.5C 2035.17,437.324 2035.5,422.324 2036.5,407.5C 2036.5,422.833 2036.5,438.167 2036.5,453.5C 2032.5,453.5 2028.5,453.5 2024.5,453.5C 2024.5,438.167 2024.5,422.833 2024.5,407.5 Z"/></g>
<g><path style="opacity:1" fill="#fefefe" d="M 2081.5,407.5 C 2130.83,407.5 2180.17,407.5 2229.5,407.5C 2229.5,411.167 2229.5,414.833 2229.5,418.5C 2180.17,418.5 2130.83,418.5 2081.5,418.5C 2081.5,414.833 2081.5,411.167 2081.5,407.5 Z"/></g>
<g><path style="opacity:1" fill="#fbfdfc" d="M 2241.5,407.5 C 2244.83,407.5 2248.17,407.5 2251.5,407.5C 2251.5,422.833 2251.5,438.167 2251.5,453.5C 2255.7,453.817 2259.7,453.483 2263.5,452.5C 2263.5,437.5 2263.5,422.5 2263.5,407.5C 2267.5,407.5 2271.5,407.5 2275.5,407.5C 2275.5,422.833 2275.5,438.167 2275.5,453.5C 2279.17,453.5 2282.83,453.5 2286.5,453.5C 2286.5,438.167 2286.5,422.833 2286.5,407.5C 2290.17,407.5 2293.83,407.5 2297.5,407.5C 2297.5,426.167 2297.5,444.833 2297.5,463.5C 2278.83,463.5 2260.17,463.5 2241.5,463.5C 2241.82,455.981 2241.49,448.648 2240.5,441.5C 2229.17,441.5 2217.83,441.5 2206.5,441.5C 2206.5,445.167 2206.5,448.833 2206.5,452.5C 2214.17,452.5 2221.83,452.5 2229.5,452.5C 2229.5,456.5 2229.5,460.5 2229.5,464.5C 2218.17,464.5 2206.83,464.5 2195.5,464.5C 2195.5,453.167 2195.5,441.833 2195.5,430.5C 2210.83,430.5 2226.17,430.5 2241.5,430.5C 2241.5,422.833 2241.5,415.167 2241.5,407.5 Z"/></g>
<g><path style="opacity:1" fill="#c9e7d0" d="M 2251.5,407.5 C 2252.5,422.324 2252.83,437.324 2252.5,452.5C 2256.17,452.5 2259.83,452.5 2263.5,452.5C 2259.7,453.483 2255.7,453.817 2251.5,453.5C 2251.5,438.167 2251.5,422.833 2251.5,407.5 Z"/></g>
<g><path style="opacity:1" fill="#fefffe" d="M 2456.5,407.5 C 2456.5,411.167 2456.5,414.833 2456.5,418.5C 2407.5,418.5 2358.5,418.5 2309.5,418.5C 2309.5,414.833 2309.5,411.167 2309.5,407.5C 2358.5,407.5 2407.5,407.5 2456.5,407.5 Z"/></g>
<g><path style="opacity:1" fill="#fdfefd" d="M 2479.5,407.5 C 2479.5,422.833 2479.5,438.167 2479.5,453.5C 2483.5,453.5 2487.5,453.5 2491.5,453.5C 2491.5,438.167 2491.5,422.833 2491.5,407.5C 2495.17,407.5 2498.83,407.5 2502.5,407.5C 2502.5,422.833 2502.5,438.167 2502.5,453.5C 2506.44,453.793 2510.27,453.46 2514,452.5C 2514.5,437.504 2514.67,422.504 2514.5,407.5C 2517.83,407.5 2521.17,407.5 2524.5,407.5C 2524.5,426.167 2524.5,444.833 2524.5,463.5C 2505.83,463.5 2487.17,463.5 2468.5,463.5C 2468.5,456.167 2468.5,448.833 2468.5,441.5C 2457.17,441.5 2445.83,441.5 2434.5,441.5C 2434.5,445.167 2434.5,448.833 2434.5,452.5C 2441.65,453.492 2448.98,453.825 2456.5,453.5C 2456.5,457.167 2456.5,460.833 2456.5,464.5C 2445.17,464.5 2433.83,464.5 2422.5,464.5C 2422.5,453.167 2422.5,441.833 2422.5,430.5C 2437.83,430.5 2453.17,430.5 2468.5,430.5C 2468.5,422.833 2468.5,415.167 2468.5,407.5C 2472.17,407.5 2475.83,407.5 2479.5,407.5 Z"/></g>
<g><path style="opacity:1" fill="#71c082" d="M 2479.5,407.5 C 2480.5,422.324 2480.83,437.324 2480.5,452.5C 2483.83,452.5 2487.17,452.5 2490.5,452.5C 2490.17,437.324 2490.5,422.324 2491.5,407.5C 2491.5,422.833 2491.5,438.167 2491.5,453.5C 2487.5,453.5 2483.5,453.5 2479.5,453.5C 2479.5,438.167 2479.5,422.833 2479.5,407.5 Z"/></g>
<g><path style="opacity:1" fill="#74c285" d="M 408.5,407.5 C 409.483,411.298 409.817,415.298 409.5,419.5C 359.997,419.832 310.664,419.499 261.5,418.5C 310.5,418.5 359.5,418.5 408.5,418.5C 408.5,414.833 408.5,411.167 408.5,407.5 Z"/></g>
<g><path style="opacity:1" fill="#75c286" d="M 944.5,407.5 C 944.5,411.167 944.5,414.833 944.5,418.5C 993.5,418.5 1042.5,418.5 1091.5,418.5C 1042.34,419.499 993.003,419.832 943.5,419.5C 943.183,415.298 943.517,411.298 944.5,407.5 Z"/></g>
<g><path style="opacity:1" fill="#73c285" d="M 1399.5,407.5 C 1399.5,411.167 1399.5,414.833 1399.5,418.5C 1448.5,418.5 1497.5,418.5 1546.5,418.5C 1497.34,419.499 1448,419.832 1398.5,419.5C 1398.18,415.298 1398.52,411.298 1399.5,407.5 Z"/></g>
<g><path style="opacity:1" fill="#74c285" d="M 2456.5,407.5 C 2457.48,411.298 2457.82,415.298 2457.5,419.5C 2408,419.832 2358.66,419.499 2309.5,418.5C 2358.5,418.5 2407.5,418.5 2456.5,418.5C 2456.5,414.833 2456.5,411.167 2456.5,407.5 Z"/></g>
<g><path style="opacity:1" fill="#6dbf7f" d="M 135.5,430.5 C 124.5,430.5 113.5,430.5 102.5,430.5C 102.5,434.167 102.5,437.833 102.5,441.5C 101.517,437.702 101.183,433.702 101.5,429.5C 113.012,429.172 124.346,429.505 135.5,430.5 Z"/></g>
<g><path style="opacity:1" fill="#71c082" d="M 193.5,407.5 C 193.5,415.167 193.5,422.833 193.5,430.5C 178.167,430.5 162.833,430.5 147.5,430.5C 162.324,429.504 177.324,429.171 192.5,429.5C 192.175,421.981 192.508,414.648 193.5,407.5 Z"/></g>
<g><path style="opacity:1" fill="#6ebf80" d="M 261.5,430.5 C 280.326,429.503 299.326,429.17 318.5,429.5C 318.5,437.167 318.5,444.833 318.5,452.5C 317.508,445.352 317.175,438.019 317.5,430.5C 298.833,430.5 280.167,430.5 261.5,430.5 Z"/></g>
<g><path style="opacity:1" fill="#6abd7d" d="M 648.5,407.5 C 648.5,415.167 648.5,422.833 648.5,430.5C 633.167,430.5 617.833,430.5 602.5,430.5C 617.324,429.504 632.324,429.171 647.5,429.5C 647.175,421.981 647.508,414.648 648.5,407.5 Z"/></g>
<g><path style="opacity:1" fill="#64bb78" d="M 1103.5,407.5 C 1103.5,415.167 1103.5,422.833 1103.5,430.5C 1088.17,430.5 1072.83,430.5 1057.5,430.5C 1072.32,429.504 1087.32,429.171 1102.5,429.5C 1102.18,421.981 1102.51,414.648 1103.5,407.5 Z"/></g>
<g><path style="opacity:1" fill="#5db872" d="M 1558.5,407.5 C 1558.5,415.167 1558.5,422.833 1558.5,430.5C 1543.5,430.5 1528.5,430.5 1513.5,430.5C 1513.17,430.5 1512.83,430.5 1512.5,430.5C 1527.32,429.504 1542.32,429.171 1557.5,429.5C 1557.18,421.981 1557.51,414.648 1558.5,407.5 Z"/></g>
<g><path style="opacity:1" fill="#6dbf7f" d="M 2183.5,430.5 C 2172.5,430.5 2161.5,430.5 2150.5,430.5C 2150.5,434.167 2150.5,437.833 2150.5,441.5C 2149.52,437.702 2149.18,433.702 2149.5,429.5C 2161.01,429.172 2172.35,429.505 2183.5,430.5 Z"/></g>
<g><path style="opacity:1" fill="#71c082" d="M 2241.5,407.5 C 2241.5,415.167 2241.5,422.833 2241.5,430.5C 2226.17,430.5 2210.83,430.5 2195.5,430.5C 2210.32,429.504 2225.32,429.171 2240.5,429.5C 2240.18,421.981 2240.51,414.648 2241.5,407.5 Z"/></g>
<g><path style="opacity:1" fill="#6ebf80" d="M 2309.5,430.5 C 2328.33,429.503 2347.33,429.17 2366.5,429.5C 2366.5,437.167 2366.5,444.833 2366.5,452.5C 2365.51,445.352 2365.18,438.019 2365.5,430.5C 2346.83,430.5 2328.17,430.5 2309.5,430.5 Z"/></g>
<g><path style="opacity:1" fill="#fafcfa" d="M 102.5,441.5 C 102.5,437.833 102.5,434.167 102.5,430.5C 113.5,430.5 124.5,430.5 135.5,430.5C 136.495,441.654 136.828,452.988 136.5,464.5C 117.5,464.5 98.5,464.5 79.5,464.5C 79.5,456.833 79.5,449.167 79.5,441.5C 67.8333,441.5 56.1667,441.5 44.5,441.5C 44.5,449.167 44.5,456.833 44.5,464.5C 40.8333,464.5 37.1667,464.5 33.5,464.5C 33.5,453.167 33.5,441.833 33.5,430.5C 52.5,430.5 71.5,430.5 90.5,430.5C 90.5,437.833 90.5,445.167 90.5,452.5C 101.833,452.5 113.167,452.5 124.5,452.5C 124.5,448.833 124.5,445.167 124.5,441.5C 117.167,441.5 109.833,441.5 102.5,441.5 Z"/></g>
<g><path style="opacity:1" fill="#fcfdfc" d="M 261.5,430.5 C 280.167,430.5 298.833,430.5 317.5,430.5C 317.175,438.019 317.508,445.352 318.5,452.5C 329.833,452.5 341.167,452.5 352.5,452.5C 352.5,448.833 352.5,445.167 352.5,441.5C 344.833,441.5 337.167,441.5 329.5,441.5C 329.5,437.833 329.5,434.167 329.5,430.5C 340.833,430.5 352.167,430.5 363.5,430.5C 363.5,441.833 363.5,453.167 363.5,464.5C 344.5,464.5 325.5,464.5 306.5,464.5C 306.5,456.833 306.5,449.167 306.5,441.5C 295.167,441.5 283.833,441.5 272.5,441.5C 272.5,449.167 272.5,456.833 272.5,464.5C 268.833,464.5 265.167,464.5 261.5,464.5C 261.5,453.167 261.5,441.833 261.5,430.5 Z"/></g>
<g><path style="opacity:1" fill="#c5e5cc" d="M 489.5,430.5 C 489.5,441.5 489.5,452.5 489.5,463.5C 492.833,463.5 496.167,463.5 499.5,463.5C 499.175,455.981 499.508,448.648 500.5,441.5C 500.5,449.167 500.5,456.833 500.5,464.5C 496.5,464.5 492.5,464.5 488.5,464.5C 488.172,452.988 488.505,441.654 489.5,430.5 Z"/></g>
<g><path style="opacity:1" fill="#fbfdfb" d="M 489.5,430.5 C 508.167,430.5 526.833,430.5 545.5,430.5C 545.5,437.833 545.5,445.167 545.5,452.5C 556.833,452.5 568.167,452.5 579.5,452.5C 579.5,448.833 579.5,445.167 579.5,441.5C 572.167,441.5 564.833,441.5 557.5,441.5C 557.5,437.833 557.5,434.167 557.5,430.5C 568.833,430.5 580.167,430.5 591.5,430.5C 591.5,441.833 591.5,453.167 591.5,464.5C 572.5,464.5 553.5,464.5 534.5,464.5C 534.5,456.833 534.5,449.167 534.5,441.5C 523.167,441.5 511.833,441.5 500.5,441.5C 499.508,448.648 499.175,455.981 499.5,463.5C 496.167,463.5 492.833,463.5 489.5,463.5C 489.5,452.5 489.5,441.5 489.5,430.5 Z"/></g>
<g><path style="opacity:1" fill="#fcfdfc" d="M 818.5,463.5 C 799.833,463.5 781.167,463.5 762.5,463.5C 762.825,455.981 762.492,448.648 761.5,441.5C 750.167,441.5 738.833,441.5 727.5,441.5C 727.5,449.167 727.5,456.833 727.5,464.5C 723.833,464.5 720.167,464.5 716.5,464.5C 716.5,453.167 716.5,441.833 716.5,430.5C 735.5,430.5 754.5,430.5 773.5,430.5C 773.5,437.833 773.5,445.167 773.5,452.5C 784.833,452.5 796.167,452.5 807.5,452.5C 807.5,448.833 807.5,445.167 807.5,441.5C 799.833,441.5 792.167,441.5 784.5,441.5C 784.5,437.833 784.5,434.167 784.5,430.5C 795.833,430.5 807.167,430.5 818.5,430.5C 818.5,441.5 818.5,452.5 818.5,463.5 Z"/></g>
<g><path style="opacity:1" fill="#f9fcfa" d="M 943.5,430.5 C 962.5,430.5 981.5,430.5 1000.5,430.5C 1000.5,437.833 1000.5,445.167 1000.5,452.5C 1011.83,452.5 1023.17,452.5 1034.5,452.5C 1034.5,448.833 1034.5,445.167 1034.5,441.5C 1027.17,441.5 1019.83,441.5 1012.5,441.5C 1012.5,437.833 1012.5,434.167 1012.5,430.5C 1023.83,430.5 1035.17,430.5 1046.5,430.5C 1046.5,441.833 1046.5,453.167 1046.5,464.5C 1027.5,464.5 1008.5,464.5 989.5,464.5C 989.5,456.833 989.5,449.167 989.5,441.5C 978.167,441.5 966.833,441.5 955.5,441.5C 955.5,449.167 955.5,456.833 955.5,464.5C 951.5,464.5 947.5,464.5 943.5,464.5C 943.5,453.167 943.5,441.833 943.5,430.5 Z"/></g>
<g><path style="opacity:1" fill="#fcfdfc" d="M 1273.5,463.5 C 1254.83,463.5 1236.17,463.5 1217.5,463.5C 1217.82,455.981 1217.49,448.648 1216.5,441.5C 1205.17,441.5 1193.83,441.5 1182.5,441.5C 1182.5,449.167 1182.5,456.833 1182.5,464.5C 1178.83,464.5 1175.17,464.5 1171.5,464.5C 1171.5,453.167 1171.5,441.833 1171.5,430.5C 1190.5,430.5 1209.5,430.5 1228.5,430.5C 1228.5,437.833 1228.5,445.167 1228.5,452.5C 1239.83,452.5 1251.17,452.5 1262.5,452.5C 1262.5,448.833 1262.5,445.167 1262.5,441.5C 1254.83,441.5 1247.17,441.5 1239.5,441.5C 1239.5,437.833 1239.5,434.167 1239.5,430.5C 1250.83,430.5 1262.17,430.5 1273.5,430.5C 1273.5,441.5 1273.5,452.5 1273.5,463.5 Z"/></g>
<g><path style="opacity:1" fill="#fbfdfc" d="M 1455.5,430.5 C 1455.5,438.167 1455.5,445.833 1455.5,453.5C 1467.01,453.828 1478.35,453.495 1489.5,452.5C 1490.48,449.038 1490.81,445.371 1490.5,441.5C 1482.83,441.5 1475.17,441.5 1467.5,441.5C 1467.5,437.833 1467.5,434.167 1467.5,430.5C 1478.83,430.5 1490.17,430.5 1501.5,430.5C 1501.5,441.833 1501.5,453.167 1501.5,464.5C 1482.5,464.5 1463.5,464.5 1444.5,464.5C 1444.5,456.833 1444.5,449.167 1444.5,441.5C 1433.17,441.5 1421.83,441.5 1410.5,441.5C 1410.5,449.167 1410.5,456.833 1410.5,464.5C 1406.5,464.5 1402.5,464.5 1398.5,464.5C 1398.5,453.167 1398.5,441.833 1398.5,430.5C 1417.5,430.5 1436.5,430.5 1455.5,430.5 Z"/></g>
<g><path style="opacity:1" fill="#fbfdfc" d="M 1672.5,464.5 C 1672.5,456.833 1672.5,449.167 1672.5,441.5C 1660.83,441.5 1649.17,441.5 1637.5,441.5C 1637.5,449.167 1637.5,456.833 1637.5,464.5C 1633.83,464.5 1630.17,464.5 1626.5,464.5C 1626.5,453.167 1626.5,441.833 1626.5,430.5C 1645.5,430.5 1664.5,430.5 1683.5,430.5C 1683.5,437.833 1683.5,445.167 1683.5,452.5C 1694.83,452.5 1706.17,452.5 1717.5,452.5C 1717.5,448.833 1717.5,445.167 1717.5,441.5C 1709.83,441.5 1702.17,441.5 1694.5,441.5C 1694.5,437.833 1694.5,434.167 1694.5,430.5C 1705.83,430.5 1717.17,430.5 1728.5,430.5C 1728.5,441.833 1728.5,453.167 1728.5,464.5C 1709.83,464.5 1691.17,464.5 1672.5,464.5 Z"/></g>
<g><path style="opacity:1" fill="#fdfefd" d="M 1910.5,430.5 C 1910.5,438.167 1910.5,445.833 1910.5,453.5C 1922.17,453.5 1933.83,453.5 1945.5,453.5C 1945.82,449.298 1945.48,445.298 1944.5,441.5C 1937.17,441.5 1929.83,441.5 1922.5,441.5C 1922.5,437.833 1922.5,434.167 1922.5,430.5C 1933.83,430.5 1945.17,430.5 1956.5,430.5C 1956.5,441.833 1956.5,453.167 1956.5,464.5C 1937.5,464.5 1918.5,464.5 1899.5,464.5C 1899.5,456.833 1899.5,449.167 1899.5,441.5C 1888.17,441.5 1876.83,441.5 1865.5,441.5C 1865.5,449.167 1865.5,456.833 1865.5,464.5C 1861.83,464.5 1858.17,464.5 1854.5,464.5C 1854.5,453.167 1854.5,441.833 1854.5,430.5C 1873.17,430.5 1891.83,430.5 1910.5,430.5 Z"/></g>
<g><path style="opacity:1" fill="#fafcfa" d="M 2150.5,441.5 C 2150.5,437.833 2150.5,434.167 2150.5,430.5C 2161.5,430.5 2172.5,430.5 2183.5,430.5C 2184.49,441.654 2184.83,452.988 2184.5,464.5C 2165.5,464.5 2146.5,464.5 2127.5,464.5C 2127.5,456.833 2127.5,449.167 2127.5,441.5C 2115.83,441.5 2104.17,441.5 2092.5,441.5C 2092.5,449.167 2092.5,456.833 2092.5,464.5C 2088.83,464.5 2085.17,464.5 2081.5,464.5C 2081.5,453.167 2081.5,441.833 2081.5,430.5C 2100.5,430.5 2119.5,430.5 2138.5,430.5C 2138.5,437.833 2138.5,445.167 2138.5,452.5C 2149.83,452.5 2161.17,452.5 2172.5,452.5C 2172.5,448.833 2172.5,445.167 2172.5,441.5C 2165.17,441.5 2157.83,441.5 2150.5,441.5 Z"/></g>
<g><path style="opacity:1" fill="#fcfdfc" d="M 2309.5,430.5 C 2328.17,430.5 2346.83,430.5 2365.5,430.5C 2365.18,438.019 2365.51,445.352 2366.5,452.5C 2377.83,452.5 2389.17,452.5 2400.5,452.5C 2400.5,448.833 2400.5,445.167 2400.5,441.5C 2392.83,441.5 2385.17,441.5 2377.5,441.5C 2377.5,437.833 2377.5,434.167 2377.5,430.5C 2388.83,430.5 2400.17,430.5 2411.5,430.5C 2411.5,441.833 2411.5,453.167 2411.5,464.5C 2392.5,464.5 2373.5,464.5 2354.5,464.5C 2354.5,456.833 2354.5,449.167 2354.5,441.5C 2343.17,441.5 2331.83,441.5 2320.5,441.5C 2320.5,449.167 2320.5,456.833 2320.5,464.5C 2316.83,464.5 2313.17,464.5 2309.5,464.5C 2309.5,453.167 2309.5,441.833 2309.5,430.5 Z"/></g>
<g><path style="opacity:1" fill="#5db770" d="M 79.5,464.5 C 78.5084,457.352 78.175,450.019 78.5,442.5C 67.5,442.5 56.5,442.5 45.5,442.5C 45.825,450.019 45.4916,457.352 44.5,464.5C 44.5,456.833 44.5,449.167 44.5,441.5C 56.1667,441.5 67.8333,441.5 79.5,441.5C 79.5,449.167 79.5,456.833 79.5,464.5 Z"/></g>
<g><path style="opacity:1" fill="#58b56b" d="M 1103.5,464.5 C 1102.51,457.352 1102.18,450.019 1102.5,442.5C 1091.5,442.5 1080.5,442.5 1069.5,442.5C 1069.5,445.833 1069.5,449.167 1069.5,452.5C 1068.52,449.038 1068.19,445.371 1068.5,441.5C 1080.17,441.5 1091.83,441.5 1103.5,441.5C 1103.5,449.167 1103.5,456.833 1103.5,464.5 Z"/></g>
<g><path style="opacity:1" fill="#5db770" d="M 1672.5,464.5 C 1671.51,457.352 1671.18,450.019 1671.5,442.5C 1660.5,442.5 1649.5,442.5 1638.5,442.5C 1638.82,450.019 1638.49,457.352 1637.5,464.5C 1637.5,456.833 1637.5,449.167 1637.5,441.5C 1649.17,441.5 1660.83,441.5 1672.5,441.5C 1672.5,449.167 1672.5,456.833 1672.5,464.5 Z"/></g>
<g><path style="opacity:1" fill="#5db770" d="M 2127.5,464.5 C 2126.51,457.352 2126.18,450.019 2126.5,442.5C 2115.5,442.5 2104.5,442.5 2093.5,442.5C 2093.82,450.019 2093.49,457.352 2092.5,464.5C 2092.5,456.833 2092.5,449.167 2092.5,441.5C 2104.17,441.5 2115.83,441.5 2127.5,441.5C 2127.5,449.167 2127.5,456.833 2127.5,464.5 Z"/></g>
<g><path style="opacity:1" fill="#97d1a4" d="M 386.5,452.5 C 394.167,452.5 401.833,452.5 409.5,452.5C 409.817,456.702 409.483,460.702 408.5,464.5C 408.5,460.833 408.5,457.167 408.5,453.5C 400.981,453.825 393.648,453.492 386.5,452.5 Z"/></g>
<g><path style="opacity:1" fill="#8fce9d" d="M 614.5,441.5 C 614.5,445.167 614.5,448.833 614.5,452.5C 622.019,452.175 629.352,452.508 636.5,453.5C 628.833,453.5 621.167,453.5 613.5,453.5C 613.183,449.298 613.517,445.298 614.5,441.5 Z"/></g>
<g><path style="opacity:1" fill="#8bcc9a" d="M 1455.5,430.5 C 1456.49,437.648 1456.82,444.981 1456.5,452.5C 1467.5,452.5 1478.5,452.5 1489.5,452.5C 1478.35,453.495 1467.01,453.828 1455.5,453.5C 1455.5,445.833 1455.5,438.167 1455.5,430.5 Z"/></g>
<g><path style="opacity:1" fill="#8fce9e" d="M 1910.5,430.5 C 1911.49,437.648 1911.82,444.981 1911.5,452.5C 1922.5,452.5 1933.5,452.5 1944.5,452.5C 1944.5,448.833 1944.5,445.167 1944.5,441.5C 1945.48,445.298 1945.82,449.298 1945.5,453.5C 1933.83,453.5 1922.17,453.5 1910.5,453.5C 1910.5,445.833 1910.5,438.167 1910.5,430.5 Z"/></g>
<g><path style="opacity:1" fill="#97d1a4" d="M 2434.5,452.5 C 2442.17,452.5 2449.83,452.5 2457.5,452.5C 2457.82,456.702 2457.48,460.702 2456.5,464.5C 2456.5,460.833 2456.5,457.167 2456.5,453.5C 2448.98,453.825 2441.65,453.492 2434.5,452.5 Z"/></g>
<g><path style="opacity:1" fill="#f4faf5" d="M 56.5,452.5 C 60.1667,452.5 63.8333,452.5 67.5,452.5C 67.5,456.5 67.5,460.5 67.5,464.5C 63.8333,464.5 60.1667,464.5 56.5,464.5C 56.5,460.5 56.5,456.5 56.5,452.5 Z"/></g>
<g><path style="opacity:1" fill="#97d1a4" d="M 295.5,453.5 C 291.833,453.5 288.167,453.5 284.5,453.5C 284.5,457.167 284.5,460.833 284.5,464.5C 283.517,460.702 283.183,456.702 283.5,452.5C 287.702,452.183 291.702,452.517 295.5,453.5 Z"/></g>
<g><path style="opacity:1" fill="#fafcfa" d="M 295.5,453.5 C 295.5,457.167 295.5,460.833 295.5,464.5C 291.833,464.5 288.167,464.5 284.5,464.5C 284.5,460.833 284.5,457.167 284.5,453.5C 288.167,453.5 291.833,453.5 295.5,453.5 Z"/></g>
<g><path style="opacity:1" fill="#f4faf5" d="M 511.5,452.5 C 515.167,452.5 518.833,452.5 522.5,452.5C 522.5,456.5 522.5,460.5 522.5,464.5C 518.833,464.5 515.167,464.5 511.5,464.5C 511.5,460.5 511.5,456.5 511.5,452.5 Z"/></g>
<g><path style="opacity:1" fill="#f6fbf7" d="M 739.5,452.5 C 743.167,452.5 746.833,452.5 750.5,452.5C 750.5,456.5 750.5,460.5 750.5,464.5C 746.833,464.5 743.167,464.5 739.5,464.5C 739.5,460.5 739.5,456.5 739.5,452.5 Z"/></g>
<g><path style="opacity:1" fill="#f4faf5" d="M 1194.5,452.5 C 1198.17,452.5 1201.83,452.5 1205.5,452.5C 1205.5,456.5 1205.5,460.5 1205.5,464.5C 1201.83,464.5 1198.17,464.5 1194.5,464.5C 1194.5,460.5 1194.5,456.5 1194.5,452.5 Z"/></g>
<g><path style="opacity:1" fill="#f4faf5" d="M 1649.5,452.5 C 1653.17,452.5 1656.83,452.5 1660.5,452.5C 1660.5,456.5 1660.5,460.5 1660.5,464.5C 1656.83,464.5 1653.17,464.5 1649.5,464.5C 1649.5,460.5 1649.5,456.5 1649.5,452.5 Z"/></g>
<g><path style="opacity:1" fill="#addbb7" d="M 1887.5,464.5 C 1887.5,460.833 1887.5,457.167 1887.5,453.5C 1884.17,453.5 1880.83,453.5 1877.5,453.5C 1877.5,457.167 1877.5,460.833 1877.5,464.5C 1876.52,460.702 1876.18,456.702 1876.5,452.5C 1880.5,452.5 1884.5,452.5 1888.5,452.5C 1888.82,456.702 1888.48,460.702 1887.5,464.5 Z"/></g>
<g><path style="opacity:1" fill="#fcfdfc" d="M 1887.5,464.5 C 1884.17,464.5 1880.83,464.5 1877.5,464.5C 1877.5,460.833 1877.5,457.167 1877.5,453.5C 1880.83,453.5 1884.17,453.5 1887.5,453.5C 1887.5,457.167 1887.5,460.833 1887.5,464.5 Z"/></g>
<g><path style="opacity:1" fill="#f4faf5" d="M 2104.5,452.5 C 2108.17,452.5 2111.83,452.5 2115.5,452.5C 2115.5,456.5 2115.5,460.5 2115.5,464.5C 2111.83,464.5 2108.17,464.5 2104.5,464.5C 2104.5,460.5 2104.5,456.5 2104.5,452.5 Z"/></g>
<g><path style="opacity:1" fill="#97d1a4" d="M 2343.5,453.5 C 2339.83,453.5 2336.17,453.5 2332.5,453.5C 2332.5,457.167 2332.5,460.833 2332.5,464.5C 2331.52,460.702 2331.18,456.702 2331.5,452.5C 2335.7,452.183 2339.7,452.517 2343.5,453.5 Z"/></g>
<g><path style="opacity:1" fill="#fafcfa" d="M 2343.5,453.5 C 2343.5,457.167 2343.5,460.833 2343.5,464.5C 2339.83,464.5 2336.17,464.5 2332.5,464.5C 2332.5,460.833 2332.5,457.167 2332.5,453.5C 2336.17,453.5 2339.83,453.5 2343.5,453.5 Z"/></g>
<g><path style="opacity:1" fill="#d3ebd9" d="M 192.5,441.5 C 193.492,448.648 193.825,455.981 193.5,463.5C 212.167,463.5 230.833,463.5 249.5,463.5C 230.674,464.497 211.674,464.83 192.5,464.5C 192.5,456.833 192.5,449.167 192.5,441.5 Z"/></g>
<g><path style="opacity:1" fill="#e2f2e5" d="M 476.5,407.5 C 477.497,426.326 477.83,445.326 477.5,464.5C 458.326,464.83 439.326,464.497 420.5,463.5C 439.167,463.5 457.833,463.5 476.5,463.5C 476.5,444.833 476.5,426.167 476.5,407.5 Z"/></g>
<g><path style="opacity:1" fill="#d9eede" d="M 761.5,441.5 C 762.492,448.648 762.825,455.981 762.5,463.5C 781.167,463.5 799.833,463.5 818.5,463.5C 799.674,464.497 780.674,464.83 761.5,464.5C 761.5,456.833 761.5,449.167 761.5,441.5 Z"/></g>
<g><path style="opacity:1" fill="#c7e6cd" d="M 977.5,453.5 C 978.482,456.962 978.815,460.629 978.5,464.5C 974.5,464.5 970.5,464.5 966.5,464.5C 966.5,460.5 966.5,456.5 966.5,452.5C 970.371,452.185 974.038,452.518 977.5,453.5 Z"/></g>
<g><path style="opacity:1" fill="#fefffe" d="M 977.5,453.5 C 977.5,456.833 977.5,460.167 977.5,463.5C 974.167,463.5 970.833,463.5 967.5,463.5C 967.5,460.167 967.5,456.833 967.5,453.5C 970.833,453.5 974.167,453.5 977.5,453.5 Z"/></g>
<g><path style="opacity:1" fill="#d3ebd9" d="M 1216.5,441.5 C 1217.49,448.648 1217.82,455.981 1217.5,463.5C 1236.17,463.5 1254.83,463.5 1273.5,463.5C 1254.67,464.497 1235.67,464.83 1216.5,464.5C 1216.5,456.833 1216.5,449.167 1216.5,441.5 Z"/></g>
<g><path style="opacity:1" fill="#c6e6cd" d="M 1421.5,452.5 C 1425.5,452.5 1429.5,452.5 1433.5,452.5C 1433.5,456.5 1433.5,460.5 1433.5,464.5C 1429.5,464.5 1425.5,464.5 1421.5,464.5C 1421.5,460.5 1421.5,456.5 1421.5,452.5 Z"/></g>
<g><path style="opacity:1" fill="#fefffe" d="M 1422.5,453.5 C 1425.83,453.5 1429.17,453.5 1432.5,453.5C 1432.5,456.833 1432.5,460.167 1432.5,463.5C 1429.17,463.5 1425.83,463.5 1422.5,463.5C 1422.5,460.167 1422.5,456.833 1422.5,453.5 Z"/></g>
<g><path style="opacity:1" fill="#d9eede" d="M 1512.5,430.5 C 1512.83,430.5 1513.17,430.5 1513.5,430.5C 1513.5,441.5 1513.5,452.5 1513.5,463.5C 1524.5,463.5 1535.5,463.5 1546.5,463.5C 1535.35,464.495 1524.01,464.828 1512.5,464.5C 1512.5,453.167 1512.5,441.833 1512.5,430.5 Z"/></g>
<g><path style="opacity:1" fill="#d9eede" d="M 1785.5,441.5 C 1786.49,448.648 1786.82,455.981 1786.5,463.5C 1805.17,463.5 1823.83,463.5 1842.5,463.5C 1823.67,464.497 1804.67,464.83 1785.5,464.5C 1785.5,456.833 1785.5,449.167 1785.5,441.5 Z"/></g>
<g><path style="opacity:1" fill="#c7e6ce" d="M 1968.5,430.5 C 1968.5,441.5 1968.5,452.5 1968.5,463.5C 1979.5,463.5 1990.5,463.5 2001.5,463.5C 2001.5,460.167 2001.5,456.833 2001.5,453.5C 2002.48,456.962 2002.81,460.629 2002.5,464.5C 1990.83,464.5 1979.17,464.5 1967.5,464.5C 1967.17,452.988 1967.51,441.654 1968.5,430.5 Z"/></g>
<g><path style="opacity:1" fill="#d9eede" d="M 2069.5,407.5 C 2070.5,426.326 2070.83,445.326 2070.5,464.5C 2051.33,464.83 2032.33,464.497 2013.5,463.5C 2032.17,463.5 2050.83,463.5 2069.5,463.5C 2069.5,444.833 2069.5,426.167 2069.5,407.5 Z"/></g>
<g><path style="opacity:1" fill="#d3ebd9" d="M 2240.5,441.5 C 2241.49,448.648 2241.82,455.981 2241.5,463.5C 2260.17,463.5 2278.83,463.5 2297.5,463.5C 2278.67,464.497 2259.67,464.83 2240.5,464.5C 2240.5,456.833 2240.5,449.167 2240.5,441.5 Z"/></g>
<g><path style="opacity:1" fill="#e2f2e5" d="M 2524.5,407.5 C 2525.5,426.326 2525.83,445.326 2525.5,464.5C 2506.33,464.83 2487.33,464.497 2468.5,463.5C 2487.17,463.5 2505.83,463.5 2524.5,463.5C 2524.5,444.833 2524.5,426.167 2524.5,407.5 Z"/></g>
<g><path style="opacity:1" fill="#cde8d3" d="M 135.5,475.5 C 135.5,475.833 135.5,476.167 135.5,476.5C 101.833,476.5 68.1667,476.5 34.5,476.5C 34.815,480.371 34.4816,484.038 33.5,487.5C 33.5,483.5 33.5,479.5 33.5,475.5C 67.5,475.5 101.5,475.5 135.5,475.5 Z"/></g>
<g><path style="opacity:1" fill="#cde8d3" d="M 2423.5,476.5 C 2423.5,476.167 2423.5,475.833 2423.5,475.5C 2457.5,475.5 2491.5,475.5 2525.5,475.5C 2525.5,479.5 2525.5,483.5 2525.5,487.5C 2524.52,484.038 2524.19,480.371 2524.5,476.5C 2490.83,476.5 2457.17,476.5 2423.5,476.5 Z"/></g>
<g><path style="opacity:1" fill="#fefefe" d="M 249.5,475.5 C 249.5,479.5 249.5,483.5 249.5,487.5C 253.5,487.5 257.5,487.5 261.5,487.5C 261.5,483.5 261.5,479.5 261.5,475.5C 295.5,475.5 329.5,475.5 363.5,475.5C 363.5,479.167 363.5,482.833 363.5,486.5C 367.298,487.483 371.298,487.817 375.5,487.5C 375.5,483.833 375.5,480.167 375.5,476.5C 409.167,476.5 442.833,476.5 476.5,476.5C 476.185,480.371 476.518,484.038 477.5,487.5C 481.167,487.5 484.833,487.5 488.5,487.5C 489.482,484.038 489.815,480.371 489.5,476.5C 523.167,476.5 556.833,476.5 590.5,476.5C 590.185,480.371 590.518,484.038 591.5,487.5C 595.167,487.5 598.833,487.5 602.5,487.5C 602.5,483.5 602.5,479.5 602.5,475.5C 636.5,475.5 670.5,475.5 704.5,475.5C 704.5,479.5 704.5,483.5 704.5,487.5C 708.702,487.817 712.702,487.483 716.5,486.5C 716.5,482.833 716.5,479.167 716.5,475.5C 750.5,475.5 784.5,475.5 818.5,475.5C 818.5,479.167 818.5,482.833 818.5,486.5C 822.298,487.483 826.298,487.817 830.5,487.5C 830.5,483.5 830.5,479.5 830.5,475.5C 864.5,475.5 898.5,475.5 932.5,475.5C 932.5,479.5 932.5,483.5 932.5,487.5C 936.167,487.5 939.833,487.5 943.5,487.5C 944.482,484.038 944.815,480.371 944.5,476.5C 978.167,476.5 1011.83,476.5 1045.5,476.5C 1045.19,480.371 1045.52,484.038 1046.5,487.5C 1050.17,487.5 1053.83,487.5 1057.5,487.5C 1058.48,484.038 1058.81,480.371 1058.5,476.5C 1092.17,476.5 1125.83,476.5 1159.5,476.5C 1159.5,480.167 1159.5,483.833 1159.5,487.5C 1163.7,487.817 1167.7,487.483 1171.5,486.5C 1171.5,482.833 1171.5,479.167 1171.5,475.5C 1205.5,475.5 1239.5,475.5 1273.5,475.5C 1273.5,479.5 1273.5,483.5 1273.5,487.5C 1277.5,487.5 1281.5,487.5 1285.5,487.5C 1285.5,483.5 1285.5,479.5 1285.5,475.5C 1319.5,475.5 1353.5,475.5 1387.5,475.5C 1387.5,479.167 1387.5,482.833 1387.5,486.5C 1391.3,487.483 1395.3,487.817 1399.5,487.5C 1399.5,483.833 1399.5,480.167 1399.5,476.5C 1433.17,476.5 1466.83,476.5 1500.5,476.5C 1500.19,480.371 1500.52,484.038 1501.5,487.5C 1505.17,487.5 1508.83,487.5 1512.5,487.5C 1513.48,484.038 1513.81,480.371 1513.5,476.5C 1547.17,476.5 1580.83,476.5 1614.5,476.5C 1614.19,480.371 1614.52,484.038 1615.5,487.5C 1619.17,487.5 1622.83,487.5 1626.5,487.5C 1626.5,483.5 1626.5,479.5 1626.5,475.5C 1660.5,475.5 1694.5,475.5 1728.5,475.5C 1728.5,479.5 1728.5,483.5 1728.5,487.5C 1732.7,487.817 1736.7,487.483 1740.5,486.5C 1740.5,482.833 1740.5,479.167 1740.5,475.5C 1774.5,475.5 1808.5,475.5 1842.5,475.5C 1842.5,479.167 1842.5,482.833 1842.5,486.5C 1846.3,487.483 1850.3,487.817 1854.5,487.5C 1854.5,483.5 1854.5,479.5 1854.5,475.5C 1888.5,475.5 1922.5,475.5 1956.5,475.5C 1956.5,479.5 1956.5,483.5 1956.5,487.5C 1960.17,487.5 1963.83,487.5 1967.5,487.5C 1968.48,484.038 1968.81,480.371 1968.5,476.5C 2002.17,476.5 2035.83,476.5 2069.5,476.5C 2069.19,480.371 2069.52,484.038 2070.5,487.5C 2074.17,487.5 2077.83,487.5 2081.5,487.5C 2082.48,484.038 2082.81,480.371 2082.5,476.5C 2116.17,476.5 2149.83,476.5 2183.5,476.5C 2183.5,480.167 2183.5,483.833 2183.5,487.5C 2187.7,487.817 2191.7,487.483 2195.5,486.5C 2195.5,482.833 2195.5,479.167 2195.5,475.5C 2229.5,475.5 2263.5,475.5 2297.5,475.5C 2297.5,479.5 2297.5,483.5 2297.5,487.5C 2301.5,487.5 2305.5,487.5 2309.5,487.5C 2309.5,483.5 2309.5,479.5 2309.5,475.5C 2343.5,475.5 2377.5,475.5 2411.5,475.5C 2411.5,479.167 2411.5,482.833 2411.5,486.5C 2415.3,487.483 2419.3,487.817 2423.5,487.5C 2423.5,483.833 2423.5,480.167 2423.5,476.5C 2457.17,476.5 2490.83,476.5 2524.5,476.5C 2524.19,480.371 2524.52,484.038 2525.5,487.5C 2536.83,487.5 2548.17,487.5 2559.5,487.5C 2559.5,649.833 2559.5,812.167 2559.5,974.5C 2548.17,974.5 2536.83,974.5 2525.5,974.5C 2525.5,978.167 2525.5,981.833 2525.5,985.5C 2491.5,985.5 2457.5,985.5 2423.5,985.5C 2423.81,981.629 2423.48,977.962 2422.5,974.5C 2418.83,974.5 2415.17,974.5 2411.5,974.5C 2411.5,978.167 2411.5,981.833 2411.5,985.5C 2377.5,985.5 2343.5,985.5 2309.5,985.5C 2309.5,981.833 2309.5,978.167 2309.5,974.5C 2305.5,974.5 2301.5,974.5 2297.5,974.5C 2297.5,978.167 2297.5,981.833 2297.5,985.5C 2263.5,985.5 2229.5,985.5 2195.5,985.5C 2195.5,981.833 2195.5,978.167 2195.5,974.5C 2191.83,974.5 2188.17,974.5 2184.5,974.5C 2183.52,977.962 2183.19,981.629 2183.5,985.5C 2149.5,985.5 2115.5,985.5 2081.5,985.5C 2081.5,981.833 2081.5,978.167 2081.5,974.5C 2077.83,974.5 2074.17,974.5 2070.5,974.5C 2069.52,977.962 2069.19,981.629 2069.5,985.5C 2035.83,985.5 2002.17,985.5 1968.5,985.5C 1968.81,981.629 1968.48,977.962 1967.5,974.5C 1963.83,974.5 1960.17,974.5 1956.5,974.5C 1956.5,978.167 1956.5,981.833 1956.5,985.5C 1922.5,985.5 1888.5,985.5 1854.5,985.5C 1854.81,981.629 1854.48,977.962 1853.5,974.5C 1849.83,974.5 1846.17,974.5 1842.5,974.5C 1842.5,978.5 1842.5,982.5 1842.5,986.5C 1808.5,986.5 1774.5,986.5 1740.5,986.5C 1740.5,982.5 1740.5,978.5 1740.5,974.5C 1736.83,974.5 1733.17,974.5 1729.5,974.5C 1728.52,977.962 1728.19,981.629 1728.5,985.5C 1694.5,985.5 1660.5,985.5 1626.5,985.5C 1626.5,981.833 1626.5,978.167 1626.5,974.5C 1622.83,974.5 1619.17,974.5 1615.5,974.5C 1614.52,977.962 1614.19,981.629 1614.5,985.5C 1580.83,985.5 1547.17,985.5 1513.5,985.5C 1513.81,981.629 1513.48,977.962 1512.5,974.5C 1508.83,974.5 1505.17,974.5 1501.5,974.5C 1501.5,978.167 1501.5,981.833 1501.5,985.5C 1467.5,985.5 1433.5,985.5 1399.5,985.5C 1399.81,981.629 1399.48,977.962 1398.5,974.5C 1394.83,974.5 1391.17,974.5 1387.5,974.5C 1387.5,978.167 1387.5,981.833 1387.5,985.5C 1353.5,985.5 1319.5,985.5 1285.5,985.5C 1285.5,981.833 1285.5,978.167 1285.5,974.5C 1281.5,974.5 1277.5,974.5 1273.5,974.5C 1273.5,978.167 1273.5,981.833 1273.5,985.5C 1239.5,985.5 1205.5,985.5 1171.5,985.5C 1171.5,981.833 1171.5,978.167 1171.5,974.5C 1167.83,974.5 1164.17,974.5 1160.5,974.5C 1159.52,977.962 1159.19,981.629 1159.5,985.5C 1125.5,985.5 1091.5,985.5 1057.5,985.5C 1057.5,981.833 1057.5,978.167 1057.5,974.5C 1053.83,974.5 1050.17,974.5 1046.5,974.5C 1045.52,977.962 1045.19,981.629 1045.5,985.5C 1011.83,985.5 978.167,985.5 944.5,985.5C 944.815,981.629 944.482,977.962 943.5,974.5C 939.833,974.5 936.167,974.5 932.5,974.5C 932.5,978.167 932.5,981.833 932.5,985.5C 898.5,985.5 864.5,985.5 830.5,985.5C 830.815,981.629 830.482,977.962 829.5,974.5C 825.833,974.5 822.167,974.5 818.5,974.5C 818.5,978.5 818.5,982.5 818.5,986.5C 784.5,986.5 750.5,986.5 716.5,986.5C 716.5,982.5 716.5,978.5 716.5,974.5C 712.833,974.5 709.167,974.5 705.5,974.5C 704.518,977.962 704.185,981.629 704.5,985.5C 670.5,985.5 636.5,985.5 602.5,985.5C 602.5,981.833 602.5,978.167 602.5,974.5C 598.833,974.5 595.167,974.5 591.5,974.5C 590.518,977.962 590.185,981.629 590.5,985.5C 556.833,985.5 523.167,985.5 489.5,985.5C 489.815,981.629 489.482,977.962 488.5,974.5C 484.833,974.5 481.167,974.5 477.5,974.5C 477.5,978.167 477.5,981.833 477.5,985.5C 443.5,985.5 409.5,985.5 375.5,985.5C 375.815,981.629 375.482,977.962 374.5,974.5C 370.833,974.5 367.167,974.5 363.5,974.5C 363.5,978.167 363.5,981.833 363.5,985.5C 329.5,985.5 295.5,985.5 261.5,985.5C 261.5,981.833 261.5,978.167 261.5,974.5C 257.5,974.5 253.5,974.5 249.5,974.5C 249.5,978.167 249.5,981.833 249.5,985.5C 215.5,985.5 181.5,985.5 147.5,985.5C 147.5,981.833 147.5,978.167 147.5,974.5C 143.833,974.5 140.167,974.5 136.5,974.5C 135.518,977.962 135.185,981.629 135.5,985.5C 101.5,985.5 67.5,985.5 33.5,985.5C 33.5,981.833 33.5,978.167 33.5,974.5C 22.1667,974.5 10.8333,974.5 -0.5,974.5C -0.5,812.167 -0.5,649.833 -0.5,487.5C 10.8333,487.5 22.1667,487.5 33.5,487.5C 34.4816,484.038 34.815,480.371 34.5,476.5C 68.1667,476.5 101.833,476.5 135.5,476.5C 135.5,480.167 135.5,483.833 135.5,487.5C 139.702,487.817 143.702,487.483 147.5,486.5C 147.5,482.833 147.5,479.167 147.5,475.5C 181.5,475.5 215.5,475.5 249.5,475.5 Z"/></g>
<g><path style="opacity:1" fill="#cde8d3" d="M 2183.5,475.5 C 2183.5,475.833 2183.5,476.167 2183.5,476.5C 2149.83,476.5 2116.17,476.5 2082.5,476.5C 2082.81,480.371 2082.48,484.038 2081.5,487.5C 2081.5,483.5 2081.5,479.5 2081.5,475.5C 2115.5,475.5 2149.5,475.5 2183.5,475.5 Z"/></g>
<g><path style="opacity:1" fill="#c8e6cf" d="M 2070.5,487.5 C 2069.52,484.038 2069.19,480.371 2069.5,476.5C 2035.83,476.5 2002.17,476.5 1968.5,476.5C 1968.81,480.371 1968.48,484.038 1967.5,487.5C 1967.5,483.5 1967.5,479.5 1967.5,475.5C 2001.83,475.5 2036.17,475.5 2070.5,475.5C 2070.5,479.5 2070.5,483.5 2070.5,487.5 Z"/></g>
<g><path style="opacity:1" fill="#c8e6cf" d="M 1615.5,487.5 C 1614.52,484.038 1614.19,480.371 1614.5,476.5C 1580.83,476.5 1547.17,476.5 1513.5,476.5C 1513.81,480.371 1513.48,484.038 1512.5,487.5C 1512.5,483.5 1512.5,479.5 1512.5,475.5C 1546.83,475.5 1581.17,475.5 1615.5,475.5C 1615.5,479.5 1615.5,483.5 1615.5,487.5 Z"/></g>
<g><path style="opacity:1" fill="#cde8d3" d="M 1399.5,476.5 C 1399.5,476.167 1399.5,475.833 1399.5,475.5C 1433.5,475.5 1467.5,475.5 1501.5,475.5C 1501.5,479.5 1501.5,483.5 1501.5,487.5C 1500.52,484.038 1500.19,480.371 1500.5,476.5C 1466.83,476.5 1433.17,476.5 1399.5,476.5 Z"/></g>
<g><path style="opacity:1" fill="#cde8d3" d="M 1159.5,475.5 C 1159.5,475.833 1159.5,476.167 1159.5,476.5C 1125.83,476.5 1092.17,476.5 1058.5,476.5C 1058.81,480.371 1058.48,484.038 1057.5,487.5C 1057.5,483.5 1057.5,479.5 1057.5,475.5C 1091.5,475.5 1125.5,475.5 1159.5,475.5 Z"/></g>
<g><path style="opacity:1" fill="#c8e6cf" d="M 1046.5,487.5 C 1045.52,484.038 1045.19,480.371 1045.5,476.5C 1011.83,476.5 978.167,476.5 944.5,476.5C 944.815,480.371 944.482,484.038 943.5,487.5C 943.5,483.5 943.5,479.5 943.5,475.5C 977.833,475.5 1012.17,475.5 1046.5,475.5C 1046.5,479.5 1046.5,483.5 1046.5,487.5 Z"/></g>
<g><path style="opacity:1" fill="#c8e6cf" d="M 591.5,487.5 C 590.518,484.038 590.185,480.371 590.5,476.5C 556.833,476.5 523.167,476.5 489.5,476.5C 489.815,480.371 489.482,484.038 488.5,487.5C 488.5,483.5 488.5,479.5 488.5,475.5C 522.833,475.5 557.167,475.5 591.5,475.5C 591.5,479.5 591.5,483.5 591.5,487.5 Z"/></g>
<g><path style="opacity:1" fill="#cde8d3" d="M 375.5,476.5 C 375.5,476.167 375.5,475.833 375.5,475.5C 409.5,475.5 443.5,475.5 477.5,475.5C 477.5,479.5 477.5,483.5 477.5,487.5C 476.518,484.038 476.185,480.371 476.5,476.5C 442.833,476.5 409.167,476.5 375.5,476.5 Z"/></g>
<g><path style="opacity:1" fill="#83c994" d="M 135.5,475.5 C 136.482,478.962 136.815,482.629 136.5,486.5C 140.167,486.5 143.833,486.5 147.5,486.5C 143.702,487.483 139.702,487.817 135.5,487.5C 135.5,483.833 135.5,480.167 135.5,476.5C 135.5,476.167 135.5,475.833 135.5,475.5 Z"/></g>
<g><path style="opacity:1" fill="#72c184" d="M 249.5,475.5 C 250.482,478.962 250.815,482.629 250.5,486.5C 253.833,486.5 257.167,486.5 260.5,486.5C 260.185,482.629 260.518,478.962 261.5,475.5C 261.5,479.5 261.5,483.5 261.5,487.5C 257.5,487.5 253.5,487.5 249.5,487.5C 249.5,483.5 249.5,479.5 249.5,475.5 Z"/></g>
<g><path style="opacity:1" fill="#83c994" d="M 375.5,475.5 C 375.5,475.833 375.5,476.167 375.5,476.5C 375.5,480.167 375.5,483.833 375.5,487.5C 371.298,487.817 367.298,487.483 363.5,486.5C 367.167,486.5 370.833,486.5 374.5,486.5C 374.185,482.629 374.518,478.962 375.5,475.5 Z"/></g>
<g><path style="opacity:1" fill="#7cc68d" d="M 704.5,475.5 C 705.482,478.962 705.815,482.629 705.5,486.5C 709.167,486.5 712.833,486.5 716.5,486.5C 712.702,487.483 708.702,487.817 704.5,487.5C 704.5,483.5 704.5,479.5 704.5,475.5 Z"/></g>
<g><path style="opacity:1" fill="#7cc68d" d="M 830.5,475.5 C 830.5,479.5 830.5,483.5 830.5,487.5C 826.298,487.817 822.298,487.483 818.5,486.5C 822.167,486.5 825.833,486.5 829.5,486.5C 829.185,482.629 829.518,478.962 830.5,475.5 Z"/></g>
<g><path style="opacity:1" fill="#83c994" d="M 1159.5,475.5 C 1160.48,478.962 1160.81,482.629 1160.5,486.5C 1164.17,486.5 1167.83,486.5 1171.5,486.5C 1167.7,487.483 1163.7,487.817 1159.5,487.5C 1159.5,483.833 1159.5,480.167 1159.5,476.5C 1159.5,476.167 1159.5,475.833 1159.5,475.5 Z"/></g>
<g><path style="opacity:1" fill="#72c184" d="M 1273.5,475.5 C 1274.48,478.962 1274.81,482.629 1274.5,486.5C 1277.83,486.5 1281.17,486.5 1284.5,486.5C 1284.19,482.629 1284.52,478.962 1285.5,475.5C 1285.5,479.5 1285.5,483.5 1285.5,487.5C 1281.5,487.5 1277.5,487.5 1273.5,487.5C 1273.5,483.5 1273.5,479.5 1273.5,475.5 Z"/></g>
<g><path style="opacity:1" fill="#83c994" d="M 1399.5,475.5 C 1399.5,475.833 1399.5,476.167 1399.5,476.5C 1399.5,480.167 1399.5,483.833 1399.5,487.5C 1395.3,487.817 1391.3,487.483 1387.5,486.5C 1391.17,486.5 1394.83,486.5 1398.5,486.5C 1398.19,482.629 1398.52,478.962 1399.5,475.5 Z"/></g>
<g><path style="opacity:1" fill="#7cc68d" d="M 1728.5,475.5 C 1729.48,478.962 1729.81,482.629 1729.5,486.5C 1733.17,486.5 1736.83,486.5 1740.5,486.5C 1736.7,487.483 1732.7,487.817 1728.5,487.5C 1728.5,483.5 1728.5,479.5 1728.5,475.5 Z"/></g>
<g><path style="opacity:1" fill="#7cc68d" d="M 1854.5,475.5 C 1854.5,479.5 1854.5,483.5 1854.5,487.5C 1850.3,487.817 1846.3,487.483 1842.5,486.5C 1846.17,486.5 1849.83,486.5 1853.5,486.5C 1853.19,482.629 1853.52,478.962 1854.5,475.5 Z"/></g>
<g><path style="opacity:1" fill="#83c994" d="M 2183.5,475.5 C 2184.48,478.962 2184.81,482.629 2184.5,486.5C 2188.17,486.5 2191.83,486.5 2195.5,486.5C 2191.7,487.483 2187.7,487.817 2183.5,487.5C 2183.5,483.833 2183.5,480.167 2183.5,476.5C 2183.5,476.167 2183.5,475.833 2183.5,475.5 Z"/></g>
<g><path style="opacity:1" fill="#72c184" d="M 2297.5,475.5 C 2298.48,478.962 2298.81,482.629 2298.5,486.5C 2301.83,486.5 2305.17,486.5 2308.5,486.5C 2308.19,482.629 2308.52,478.962 2309.5,475.5C 2309.5,479.5 2309.5,483.5 2309.5,487.5C 2305.5,487.5 2301.5,487.5 2297.5,487.5C 2297.5,483.5 2297.5,479.5 2297.5,475.5 Z"/></g>
<g><path style="opacity:1" fill="#83c994" d="M 2423.5,475.5 C 2423.5,475.833 2423.5,476.167 2423.5,476.5C 2423.5,480.167 2423.5,483.833 2423.5,487.5C 2419.3,487.817 2415.3,487.483 2411.5,486.5C 2415.17,486.5 2418.83,486.5 2422.5,486.5C 2422.19,482.629 2422.52,478.962 2423.5,475.5 Z"/></g>
<g><path style="opacity:1" fill="#da0100" d="M -0.5,974.5 C 10.8333,974.5 22.1667,974.5 33.5,974.5C 33.5,978.167 33.5,981.833 33.5,985.5C 67.6626,986.498 101.996,986.832 136.5,986.5C 136.5,982.5 136.5,978.5 136.5,974.5C 140.167,974.5 143.833,974.5 147.5,974.5C 147.5,978.167 147.5,981.833 147.5,985.5C 181.663,986.498 215.996,986.832 250.5,986.5C 250.5,982.833 250.5,979.167 250.5,975.5C 253.833,975.5 257.167,975.5 260.5,975.5C 260.5,979.167 260.5,982.833 260.5,986.5C 295.004,986.832 329.337,986.498 363.5,985.5C 363.5,981.833 363.5,978.167 363.5,974.5C 367.167,974.5 370.833,974.5 374.5,974.5C 374.5,978.5 374.5,982.5 374.5,986.5C 409.004,986.832 443.337,986.498 477.5,985.5C 477.5,981.833 477.5,978.167 477.5,974.5C 481.167,974.5 484.833,974.5 488.5,974.5C 488.5,978.5 488.5,982.5 488.5,986.5C 522.833,986.5 557.167,986.5 591.5,986.5C 591.5,982.5 591.5,978.5 591.5,974.5C 595.167,974.5 598.833,974.5 602.5,974.5C 602.5,978.167 602.5,981.833 602.5,985.5C 636.663,986.498 670.996,986.832 705.5,986.5C 705.5,982.5 705.5,978.5 705.5,974.5C 709.167,974.5 712.833,974.5 716.5,974.5C 716.5,978.5 716.5,982.5 716.5,986.5C 750.5,986.5 784.5,986.5 818.5,986.5C 818.5,982.5 818.5,978.5 818.5,974.5C 822.167,974.5 825.833,974.5 829.5,974.5C 829.5,978.5 829.5,982.5 829.5,986.5C 864.004,986.832 898.337,986.498 932.5,985.5C 932.5,981.833 932.5,978.167 932.5,974.5C 936.167,974.5 939.833,974.5 943.5,974.5C 943.5,978.5 943.5,982.5 943.5,986.5C 977.833,986.5 1012.17,986.5 1046.5,986.5C 1046.5,982.5 1046.5,978.5 1046.5,974.5C 1050.17,974.5 1053.83,974.5 1057.5,974.5C 1057.5,978.167 1057.5,981.833 1057.5,985.5C 1091.66,986.498 1126,986.832 1160.5,986.5C 1160.5,982.5 1160.5,978.5 1160.5,974.5C 1164.17,974.5 1167.83,974.5 1171.5,974.5C 1171.5,978.167 1171.5,981.833 1171.5,985.5C 1205.66,986.498 1240,986.832 1274.5,986.5C 1274.5,982.833 1274.5,979.167 1274.5,975.5C 1277.83,975.5 1281.17,975.5 1284.5,975.5C 1284.5,979.167 1284.5,982.833 1284.5,986.5C 1319,986.832 1353.34,986.498 1387.5,985.5C 1387.5,981.833 1387.5,978.167 1387.5,974.5C 1391.17,974.5 1394.83,974.5 1398.5,974.5C 1398.5,978.5 1398.5,982.5 1398.5,986.5C 1433,986.832 1467.34,986.498 1501.5,985.5C 1501.5,981.833 1501.5,978.167 1501.5,974.5C 1505.17,974.5 1508.83,974.5 1512.5,974.5C 1512.5,978.5 1512.5,982.5 1512.5,986.5C 1546.83,986.5 1581.17,986.5 1615.5,986.5C 1615.5,982.5 1615.5,978.5 1615.5,974.5C 1619.17,974.5 1622.83,974.5 1626.5,974.5C 1626.5,978.167 1626.5,981.833 1626.5,985.5C 1660.66,986.498 1695,986.832 1729.5,986.5C 1729.5,982.5 1729.5,978.5 1729.5,974.5C 1733.17,974.5 1736.83,974.5 1740.5,974.5C 1740.5,978.5 1740.5,982.5 1740.5,986.5C 1774.5,986.5 1808.5,986.5 1842.5,986.5C 1842.5,982.5 1842.5,978.5 1842.5,974.5C 1846.17,974.5 1849.83,974.5 1853.5,974.5C 1853.5,978.5 1853.5,982.5 1853.5,986.5C 1888,986.832 1922.34,986.498 1956.5,985.5C 1956.5,981.833 1956.5,978.167 1956.5,974.5C 1960.17,974.5 1963.83,974.5 1967.5,974.5C 1967.5,978.5 1967.5,982.5 1967.5,986.5C 2001.83,986.5 2036.17,986.5 2070.5,986.5C 2070.5,982.5 2070.5,978.5 2070.5,974.5C 2074.17,974.5 2077.83,974.5 2081.5,974.5C 2081.5,978.167 2081.5,981.833 2081.5,985.5C 2115.66,986.498 2150,986.832 2184.5,986.5C 2184.5,982.5 2184.5,978.5 2184.5,974.5C 2188.17,974.5 2191.83,974.5 2195.5,974.5C 2195.5,978.167 2195.5,981.833 2195.5,985.5C 2229.66,986.498 2264,986.832 2298.5,986.5C 2298.5,982.833 2298.5,979.167 2298.5,975.5C 2301.83,975.5 2305.17,975.5 2308.5,975.5C 2308.5,979.167 2308.5,982.833 2308.5,986.5C 2343,986.832 2377.34,986.498 2411.5,985.5C 2411.5,981.833 2411.5,978.167 2411.5,974.5C 2415.17,974.5 2418.83,974.5 2422.5,974.5C 2422.5,978.5 2422.5,982.5 2422.5,986.5C 2457,986.832 2491.34,986.498 2525.5,985.5C 2525.5,981.833 2525.5,978.167 2525.5,974.5C 2536.83,974.5 2548.17,974.5 2559.5,974.5C 2559.5,1137.17 2559.5,1299.83 2559.5,1462.5C 1706.17,1462.5 852.833,1462.5 -0.5,1462.5C -0.5,1299.83 -0.5,1137.17 -0.5,974.5 Z"/></g>
<g><path style="opacity:1" fill="#ee7f7c" d="M 363.5,985.5 C 329.337,986.498 295.004,986.832 260.5,986.5C 260.5,982.833 260.5,979.167 260.5,975.5C 257.167,975.5 253.833,975.5 250.5,975.5C 250.5,979.167 250.5,982.833 250.5,986.5C 215.996,986.832 181.663,986.498 147.5,985.5C 181.5,985.5 215.5,985.5 249.5,985.5C 249.5,981.833 249.5,978.167 249.5,974.5C 253.5,974.5 257.5,974.5 261.5,974.5C 261.5,978.167 261.5,981.833 261.5,985.5C 295.5,985.5 329.5,985.5 363.5,985.5 Z"/></g>
<g><path style="opacity:1" fill="#ee7f7c" d="M 1387.5,985.5 C 1353.34,986.498 1319,986.832 1284.5,986.5C 1284.5,982.833 1284.5,979.167 1284.5,975.5C 1281.17,975.5 1277.83,975.5 1274.5,975.5C 1274.5,979.167 1274.5,982.833 1274.5,986.5C 1240,986.832 1205.66,986.498 1171.5,985.5C 1205.5,985.5 1239.5,985.5 1273.5,985.5C 1273.5,981.833 1273.5,978.167 1273.5,974.5C 1277.5,974.5 1281.5,974.5 1285.5,974.5C 1285.5,978.167 1285.5,981.833 1285.5,985.5C 1319.5,985.5 1353.5,985.5 1387.5,985.5 Z"/></g>
<g><path style="opacity:1" fill="#ee7f7c" d="M 2411.5,985.5 C 2377.34,986.498 2343,986.832 2308.5,986.5C 2308.5,982.833 2308.5,979.167 2308.5,975.5C 2305.17,975.5 2301.83,975.5 2298.5,975.5C 2298.5,979.167 2298.5,982.833 2298.5,986.5C 2264,986.832 2229.66,986.498 2195.5,985.5C 2229.5,985.5 2263.5,985.5 2297.5,985.5C 2297.5,981.833 2297.5,978.167 2297.5,974.5C 2301.5,974.5 2305.5,974.5 2309.5,974.5C 2309.5,978.167 2309.5,981.833 2309.5,985.5C 2343.5,985.5 2377.5,985.5 2411.5,985.5 Z"/></g>
<g><path style="opacity:1" fill="#f09b9b" d="M 136.5,974.5 C 136.5,978.5 136.5,982.5 136.5,986.5C 101.996,986.832 67.6626,986.498 33.5,985.5C 67.5,985.5 101.5,985.5 135.5,985.5C 135.185,981.629 135.518,977.962 136.5,974.5 Z"/></g>
<g><path style="opacity:1" fill="#f09b9b" d="M 374.5,974.5 C 375.482,977.962 375.815,981.629 375.5,985.5C 409.5,985.5 443.5,985.5 477.5,985.5C 443.337,986.498 409.004,986.832 374.5,986.5C 374.5,982.5 374.5,978.5 374.5,974.5 Z"/></g>
<g><path style="opacity:1" fill="#f1a0a0" d="M 488.5,974.5 C 489.482,977.962 489.815,981.629 489.5,985.5C 523.167,985.5 556.833,985.5 590.5,985.5C 590.185,981.629 590.518,977.962 591.5,974.5C 591.5,978.5 591.5,982.5 591.5,986.5C 557.167,986.5 522.833,986.5 488.5,986.5C 488.5,982.5 488.5,978.5 488.5,974.5 Z"/></g>
<g><path style="opacity:1" fill="#f09999" d="M 705.5,974.5 C 705.5,978.5 705.5,982.5 705.5,986.5C 670.996,986.832 636.663,986.498 602.5,985.5C 636.5,985.5 670.5,985.5 704.5,985.5C 704.185,981.629 704.518,977.962 705.5,974.5 Z"/></g>
<g><path style="opacity:1" fill="#f09999" d="M 829.5,974.5 C 830.482,977.962 830.815,981.629 830.5,985.5C 864.5,985.5 898.5,985.5 932.5,985.5C 898.337,986.498 864.004,986.832 829.5,986.5C 829.5,982.5 829.5,978.5 829.5,974.5 Z"/></g>
<g><path style="opacity:1" fill="#f1a0a0" d="M 943.5,974.5 C 944.482,977.962 944.815,981.629 944.5,985.5C 978.167,985.5 1011.83,985.5 1045.5,985.5C 1045.19,981.629 1045.52,977.962 1046.5,974.5C 1046.5,978.5 1046.5,982.5 1046.5,986.5C 1012.17,986.5 977.833,986.5 943.5,986.5C 943.5,982.5 943.5,978.5 943.5,974.5 Z"/></g>
<g><path style="opacity:1" fill="#f09b9b" d="M 1160.5,974.5 C 1160.5,978.5 1160.5,982.5 1160.5,986.5C 1126,986.832 1091.66,986.498 1057.5,985.5C 1091.5,985.5 1125.5,985.5 1159.5,985.5C 1159.19,981.629 1159.52,977.962 1160.5,974.5 Z"/></g>
<g><path style="opacity:1" fill="#f09b9b" d="M 1398.5,974.5 C 1399.48,977.962 1399.81,981.629 1399.5,985.5C 1433.5,985.5 1467.5,985.5 1501.5,985.5C 1467.34,986.498 1433,986.832 1398.5,986.5C 1398.5,982.5 1398.5,978.5 1398.5,974.5 Z"/></g>
<g><path style="opacity:1" fill="#f1a0a0" d="M 1512.5,974.5 C 1513.48,977.962 1513.81,981.629 1513.5,985.5C 1547.17,985.5 1580.83,985.5 1614.5,985.5C 1614.19,981.629 1614.52,977.962 1615.5,974.5C 1615.5,978.5 1615.5,982.5 1615.5,986.5C 1581.17,986.5 1546.83,986.5 1512.5,986.5C 1512.5,982.5 1512.5,978.5 1512.5,974.5 Z"/></g>
<g><path style="opacity:1" fill="#f09999" d="M 1729.5,974.5 C 1729.5,978.5 1729.5,982.5 1729.5,986.5C 1695,986.832 1660.66,986.498 1626.5,985.5C 1660.5,985.5 1694.5,985.5 1728.5,985.5C 1728.19,981.629 1728.52,977.962 1729.5,974.5 Z"/></g>
<g><path style="opacity:1" fill="#f09999" d="M 1853.5,974.5 C 1854.48,977.962 1854.81,981.629 1854.5,985.5C 1888.5,985.5 1922.5,985.5 1956.5,985.5C 1922.34,986.498 1888,986.832 1853.5,986.5C 1853.5,982.5 1853.5,978.5 1853.5,974.5 Z"/></g>
<g><path style="opacity:1" fill="#f1a0a0" d="M 1967.5,974.5 C 1968.48,977.962 1968.81,981.629 1968.5,985.5C 2002.17,985.5 2035.83,985.5 2069.5,985.5C 2069.19,981.629 2069.52,977.962 2070.5,974.5C 2070.5,978.5 2070.5,982.5 2070.5,986.5C 2036.17,986.5 2001.83,986.5 1967.5,986.5C 1967.5,982.5 1967.5,978.5 1967.5,974.5 Z"/></g>
<g><path style="opacity:1" fill="#f09b9b" d="M 2184.5,974.5 C 2184.5,978.5 2184.5,982.5 2184.5,986.5C 2150,986.832 2115.66,986.498 2081.5,985.5C 2115.5,985.5 2149.5,985.5 2183.5,985.5C 2183.19,981.629 2183.52,977.962 2184.5,974.5 Z"/></g>
<g><path style="opacity:1" fill="#f09b9b" d="M 2422.5,974.5 C 2423.48,977.962 2423.81,981.629 2423.5,985.5C 2457.5,985.5 2491.5,985.5 2525.5,985.5C 2491.34,986.498 2457,986.832 2422.5,986.5C 2422.5,982.5 2422.5,978.5 2422.5,974.5 Z"/></g>
<g><path style="opacity:1" fill="#fefefe" d="M 33.5,997.5 C 82.8333,997.5 132.167,997.5 181.5,997.5C 181.5,1001.17 181.5,1004.83 181.5,1008.5C 132.167,1008.5 82.8333,1008.5 33.5,1008.5C 33.5,1004.83 33.5,1001.17 33.5,997.5 Z"/></g>
<g><path style="opacity:1" fill="#fefafa" d="M 193.5,997.5 C 197.167,997.5 200.833,997.5 204.5,997.5C 204.5,1012.83 204.5,1028.17 204.5,1043.5C 208.167,1043.5 211.833,1043.5 215.5,1043.5C 215.5,1028.17 215.5,1012.83 215.5,997.5C 219.5,997.5 223.5,997.5 227.5,997.5C 227.5,1012.83 227.5,1028.17 227.5,1043.5C 231.167,1043.5 234.833,1043.5 238.5,1043.5C 238.5,1028.17 238.5,1012.83 238.5,997.5C 242.167,997.5 245.833,997.5 249.5,997.5C 249.5,1016.5 249.5,1035.5 249.5,1054.5C 230.5,1054.5 211.5,1054.5 192.5,1054.5C 192.5,1046.83 192.5,1039.17 192.5,1031.5C 181.167,1031.5 169.833,1031.5 158.5,1031.5C 158.5,1035.5 158.5,1039.5 158.5,1043.5C 166.167,1043.5 173.833,1043.5 181.5,1043.5C 181.5,1047.17 181.5,1050.83 181.5,1054.5C 170.167,1054.5 158.833,1054.5 147.5,1054.5C 147.5,1043.17 147.5,1031.83 147.5,1020.5C 162.833,1020.5 178.167,1020.5 193.5,1020.5C 193.5,1012.83 193.5,1005.17 193.5,997.5 Z"/></g>
<g><path style="opacity:1" fill="#fefffe" d="M 408.5,997.5 C 408.5,1001.17 408.5,1004.83 408.5,1008.5C 359.5,1008.5 310.5,1008.5 261.5,1008.5C 261.5,1004.83 261.5,1001.17 261.5,997.5C 310.5,997.5 359.5,997.5 408.5,997.5 Z"/></g>
<g><path style="opacity:1" fill="#fefdfd" d="M 431.5,997.5 C 431.5,1012.83 431.5,1028.17 431.5,1043.5C 435.5,1043.5 439.5,1043.5 443.5,1043.5C 443.5,1028.17 443.5,1012.83 443.5,997.5C 447.167,997.5 450.833,997.5 454.5,997.5C 454.5,1012.83 454.5,1028.17 454.5,1043.5C 458.437,1043.79 462.27,1043.46 466,1042.5C 466.5,1027.5 466.667,1012.5 466.5,997.5C 469.833,997.5 473.167,997.5 476.5,997.5C 476.5,1016.17 476.5,1034.83 476.5,1053.5C 457.833,1053.5 439.167,1053.5 420.5,1053.5C 420.5,1046.17 420.5,1038.83 420.5,1031.5C 409.167,1031.5 397.833,1031.5 386.5,1031.5C 386.5,1035.17 386.5,1038.83 386.5,1042.5C 393.648,1043.49 400.981,1043.82 408.5,1043.5C 408.5,1047.17 408.5,1050.83 408.5,1054.5C 397.167,1054.5 385.833,1054.5 374.5,1054.5C 374.5,1043.17 374.5,1031.83 374.5,1020.5C 389.833,1020.5 405.167,1020.5 420.5,1020.5C 420.5,1012.83 420.5,1005.17 420.5,997.5C 424.167,997.5 427.833,997.5 431.5,997.5 Z"/></g>
<g><path style="opacity:1" fill="#e75958" d="M 431.5,997.5 C 432.496,1012.32 432.829,1027.32 432.5,1042.5C 435.833,1042.5 439.167,1042.5 442.5,1042.5C 442.171,1027.32 442.504,1012.32 443.5,997.5C 443.5,1012.83 443.5,1028.17 443.5,1043.5C 439.5,1043.5 435.5,1043.5 431.5,1043.5C 431.5,1028.17 431.5,1012.83 431.5,997.5 Z"/></g>
<g><path style="opacity:1" fill="#fefefe" d="M 488.5,997.5 C 537.833,997.5 587.167,997.5 636.5,997.5C 636.5,1001.17 636.5,1004.83 636.5,1008.5C 587.167,1008.5 537.833,1008.5 488.5,1008.5C 488.5,1004.83 488.5,1001.17 488.5,997.5 Z"/></g>
<g><path style="opacity:1" fill="#fefbfb" d="M 648.5,997.5 C 652.167,997.5 655.833,997.5 659.5,997.5C 659.5,1012.83 659.5,1028.17 659.5,1043.5C 663.167,1043.5 666.833,1043.5 670.5,1043.5C 670.5,1028.17 670.5,1012.83 670.5,997.5C 674.5,997.5 678.5,997.5 682.5,997.5C 682.5,1012.83 682.5,1028.17 682.5,1043.5C 686.167,1043.5 689.833,1043.5 693.5,1043.5C 693.5,1028.17 693.5,1012.83 693.5,997.5C 697.167,997.5 700.833,997.5 704.5,997.5C 704.5,1016.5 704.5,1035.5 704.5,1054.5C 685.833,1054.5 667.167,1054.5 648.5,1054.5C 648.5,1046.83 648.5,1039.17 648.5,1031.5C 637.167,1031.5 625.833,1031.5 614.5,1031.5C 613.517,1035.3 613.183,1039.3 613.5,1043.5C 621.167,1043.5 628.833,1043.5 636.5,1043.5C 636.5,1047.17 636.5,1050.83 636.5,1054.5C 625.167,1054.5 613.833,1054.5 602.5,1054.5C 602.5,1043.17 602.5,1031.83 602.5,1020.5C 617.833,1020.5 633.167,1020.5 648.5,1020.5C 648.5,1012.83 648.5,1005.17 648.5,997.5 Z"/></g>
<g><path style="opacity:1" fill="#fefefe" d="M 716.5,997.5 C 765.833,997.5 815.167,997.5 864.5,997.5C 864.5,1001.17 864.5,1004.83 864.5,1008.5C 815.167,1008.5 765.833,1008.5 716.5,1008.5C 716.5,1004.83 716.5,1001.17 716.5,997.5 Z"/></g>
<g><path style="opacity:1" fill="#fefdfd" d="M 886.5,997.5 C 886.5,1012.83 886.5,1028.17 886.5,1043.5C 890.702,1043.82 894.702,1043.48 898.5,1042.5C 898.5,1027.5 898.5,1012.5 898.5,997.5C 902.167,997.5 905.833,997.5 909.5,997.5C 909.5,1012.5 909.5,1027.5 909.5,1042.5C 913.298,1043.48 917.298,1043.82 921.5,1043.5C 921.5,1028.17 921.5,1012.83 921.5,997.5C 925.167,997.5 928.833,997.5 932.5,997.5C 932.5,1016.5 932.5,1035.5 932.5,1054.5C 913.5,1054.5 894.5,1054.5 875.5,1054.5C 875.5,1046.83 875.5,1039.17 875.5,1031.5C 864.167,1031.5 852.833,1031.5 841.5,1031.5C 841.5,1035.5 841.5,1039.5 841.5,1043.5C 849.167,1043.5 856.833,1043.5 864.5,1043.5C 864.5,1047.17 864.5,1050.83 864.5,1054.5C 853.167,1054.5 841.833,1054.5 830.5,1054.5C 830.5,1043.17 830.5,1031.83 830.5,1020.5C 845.5,1020.5 860.5,1020.5 875.5,1020.5C 875.5,1012.83 875.5,1005.17 875.5,997.5C 879.167,997.5 882.833,997.5 886.5,997.5 Z"/></g>
<g><path style="opacity:1" fill="#eb7979" d="M 886.5,997.5 C 887.496,1012.32 887.829,1027.32 887.5,1042.5C 891.167,1042.5 894.833,1042.5 898.5,1042.5C 894.702,1043.48 890.702,1043.82 886.5,1043.5C 886.5,1028.17 886.5,1012.83 886.5,997.5 Z"/></g>
<g><path style="opacity:1" fill="#e96b6b" d="M 921.5,997.5 C 921.5,1012.83 921.5,1028.17 921.5,1043.5C 917.298,1043.82 913.298,1043.48 909.5,1042.5C 913.167,1042.5 916.833,1042.5 920.5,1042.5C 920.171,1027.32 920.504,1012.32 921.5,997.5 Z"/></g>
<g><path style="opacity:1" fill="#fefffe" d="M 944.5,997.5 C 993.5,997.5 1042.5,997.5 1091.5,997.5C 1091.5,1001.17 1091.5,1004.83 1091.5,1008.5C 1042.5,1008.5 993.5,1008.5 944.5,1008.5C 944.5,1004.83 944.5,1001.17 944.5,997.5 Z"/></g>
<g><path style="opacity:1" fill="#fef8f8" d="M 1103.5,997.5 C 1107.17,997.5 1110.83,997.5 1114.5,997.5C 1114.5,1012.83 1114.5,1028.17 1114.5,1043.5C 1118.17,1043.5 1121.83,1043.5 1125.5,1043.5C 1125.5,1028.17 1125.5,1012.83 1125.5,997.5C 1129.5,997.5 1133.5,997.5 1137.5,997.5C 1137.5,1012.83 1137.5,1028.17 1137.5,1043.5C 1141.17,1043.5 1144.83,1043.5 1148.5,1043.5C 1148.5,1028.17 1148.5,1012.83 1148.5,997.5C 1152.5,997.5 1156.5,997.5 1160.5,997.5C 1160.5,1016.5 1160.5,1035.5 1160.5,1054.5C 1141.5,1054.5 1122.5,1054.5 1103.5,1054.5C 1103.5,1046.83 1103.5,1039.17 1103.5,1031.5C 1092.17,1031.5 1080.83,1031.5 1069.5,1031.5C 1069.5,1035.5 1069.5,1039.5 1069.5,1043.5C 1076.83,1043.5 1084.17,1043.5 1091.5,1043.5C 1091.5,1047.17 1091.5,1050.83 1091.5,1054.5C 1080.17,1054.5 1068.83,1054.5 1057.5,1054.5C 1057.5,1043.17 1057.5,1031.83 1057.5,1020.5C 1072.83,1020.5 1088.17,1020.5 1103.5,1020.5C 1103.5,1012.83 1103.5,1005.17 1103.5,997.5 Z"/></g>
<g><path style="opacity:1" fill="#fefefe" d="M 1171.5,997.5 C 1220.83,997.5 1270.17,997.5 1319.5,997.5C 1319.5,1001.17 1319.5,1004.83 1319.5,1008.5C 1270.17,1008.5 1220.83,1008.5 1171.5,1008.5C 1171.5,1004.83 1171.5,1001.17 1171.5,997.5 Z"/></g>
<g><path style="opacity:1" fill="#fefcfc" d="M 1364.5,997.5 C 1364.5,1012.83 1364.5,1028.17 1364.5,1043.5C 1368.5,1043.5 1372.5,1043.5 1376.5,1043.5C 1376.5,1028.17 1376.5,1012.83 1376.5,997.5C 1380.17,997.5 1383.83,997.5 1387.5,997.5C 1387.5,1016.17 1387.5,1034.83 1387.5,1053.5C 1368.83,1053.5 1350.17,1053.5 1331.5,1053.5C 1331.82,1045.98 1331.49,1038.65 1330.5,1031.5C 1319.17,1031.5 1307.83,1031.5 1296.5,1031.5C 1296.5,1035.5 1296.5,1039.5 1296.5,1043.5C 1304.17,1043.5 1311.83,1043.5 1319.5,1043.5C 1319.5,1047.17 1319.5,1050.83 1319.5,1054.5C 1308.17,1054.5 1296.83,1054.5 1285.5,1054.5C 1285.5,1043.17 1285.5,1031.83 1285.5,1020.5C 1300.5,1020.5 1315.5,1020.5 1330.5,1020.5C 1330.5,1012.83 1330.5,1005.17 1330.5,997.5C 1334.5,997.5 1338.5,997.5 1342.5,997.5C 1342.5,1012.83 1342.5,1028.17 1342.5,1043.5C 1346.17,1043.5 1349.83,1043.5 1353.5,1043.5C 1353.5,1028.17 1353.5,1012.83 1353.5,997.5C 1357.17,997.5 1360.83,997.5 1364.5,997.5 Z"/></g>
<g><path style="opacity:1" fill="#e65857" d="M 1364.5,997.5 C 1365.5,1012.32 1365.83,1027.32 1365.5,1042.5C 1368.83,1042.5 1372.17,1042.5 1375.5,1042.5C 1375.17,1027.32 1375.5,1012.32 1376.5,997.5C 1376.5,1012.83 1376.5,1028.17 1376.5,1043.5C 1372.5,1043.5 1368.5,1043.5 1364.5,1043.5C 1364.5,1028.17 1364.5,1012.83 1364.5,997.5 Z"/></g>
<g><path style="opacity:1" fill="#fffefe" d="M 1398.5,997.5 C 1447.83,997.5 1497.17,997.5 1546.5,997.5C 1546.5,1001.17 1546.5,1004.83 1546.5,1008.5C 1497.17,1008.5 1447.83,1008.5 1398.5,1008.5C 1398.5,1004.83 1398.5,1001.17 1398.5,997.5 Z"/></g>
<g><path style="opacity:1" fill="#fefcfb" d="M 1558.5,997.5 C 1562.17,997.5 1565.83,997.5 1569.5,997.5C 1569.5,1012.83 1569.5,1028.17 1569.5,1043.5C 1573.44,1043.79 1577.27,1043.46 1581,1042.5C 1581.5,1027.5 1581.67,1012.5 1581.5,997.5C 1585.17,997.5 1588.83,997.5 1592.5,997.5C 1592.5,1012.5 1592.5,1027.5 1592.5,1042.5C 1596.3,1043.48 1600.3,1043.82 1604.5,1043.5C 1604.5,1028.17 1604.5,1012.83 1604.5,997.5C 1608.17,997.5 1611.83,997.5 1615.5,997.5C 1615.5,1016.5 1615.5,1035.5 1615.5,1054.5C 1596.5,1054.5 1577.5,1054.5 1558.5,1054.5C 1558.5,1046.83 1558.5,1039.17 1558.5,1031.5C 1546.99,1031.17 1535.65,1031.51 1524.5,1032.5C 1524.5,1036.17 1524.5,1039.83 1524.5,1043.5C 1531.83,1043.5 1539.17,1043.5 1546.5,1043.5C 1546.5,1046.83 1546.5,1050.17 1546.5,1053.5C 1535.5,1053.5 1524.5,1053.5 1513.5,1053.5C 1513.5,1042.5 1513.5,1031.5 1513.5,1020.5C 1528.5,1020.5 1543.5,1020.5 1558.5,1020.5C 1558.5,1012.83 1558.5,1005.17 1558.5,997.5 Z"/></g>
<g><path style="opacity:1" fill="#f4b1b1" d="M 1604.5,997.5 C 1604.5,1012.83 1604.5,1028.17 1604.5,1043.5C 1600.3,1043.82 1596.3,1043.48 1592.5,1042.5C 1596.17,1042.5 1599.83,1042.5 1603.5,1042.5C 1603.17,1027.32 1603.5,1012.32 1604.5,997.5 Z"/></g>
<g><path style="opacity:1" fill="#fefefe" d="M 1626.5,997.5 C 1675.83,997.5 1725.17,997.5 1774.5,997.5C 1774.5,1001.17 1774.5,1004.83 1774.5,1008.5C 1725.17,1008.5 1675.83,1008.5 1626.5,1008.5C 1626.5,1004.83 1626.5,1001.17 1626.5,997.5 Z"/></g>
<g><path style="opacity:1" fill="#fefcfc" d="M 1819.5,997.5 C 1819.5,1012.83 1819.5,1028.17 1819.5,1043.5C 1823.7,1043.82 1827.7,1043.48 1831.5,1042.5C 1831.5,1027.5 1831.5,1012.5 1831.5,997.5C 1835.17,997.5 1838.83,997.5 1842.5,997.5C 1842.5,1016.17 1842.5,1034.83 1842.5,1053.5C 1823.83,1053.5 1805.17,1053.5 1786.5,1053.5C 1786.82,1045.98 1786.49,1038.65 1785.5,1031.5C 1774.17,1031.5 1762.83,1031.5 1751.5,1031.5C 1751.5,1035.5 1751.5,1039.5 1751.5,1043.5C 1759.17,1043.5 1766.83,1043.5 1774.5,1043.5C 1774.5,1047.17 1774.5,1050.83 1774.5,1054.5C 1763.17,1054.5 1751.83,1054.5 1740.5,1054.5C 1740.5,1043.17 1740.5,1031.83 1740.5,1020.5C 1755.5,1020.5 1770.5,1020.5 1785.5,1020.5C 1785.5,1012.83 1785.5,1005.17 1785.5,997.5C 1789.5,997.5 1793.5,997.5 1797.5,997.5C 1797.5,1012.83 1797.5,1028.17 1797.5,1043.5C 1801.17,1043.5 1804.83,1043.5 1808.5,1043.5C 1808.5,1028.17 1808.5,1012.83 1808.5,997.5C 1812.17,997.5 1815.83,997.5 1819.5,997.5 Z"/></g>
<g><path style="opacity:1" fill="#ea7474" d="M 1819.5,997.5 C 1820.5,1012.32 1820.83,1027.32 1820.5,1042.5C 1824.17,1042.5 1827.83,1042.5 1831.5,1042.5C 1827.7,1043.48 1823.7,1043.82 1819.5,1043.5C 1819.5,1028.17 1819.5,1012.83 1819.5,997.5 Z"/></g>
<g><path style="opacity:1" fill="#fefffe" d="M 1854.5,997.5 C 1903.5,997.5 1952.5,997.5 2001.5,997.5C 2001.5,1001.17 2001.5,1004.83 2001.5,1008.5C 1952.5,1008.5 1903.5,1008.5 1854.5,1008.5C 1854.5,1004.83 1854.5,1001.17 1854.5,997.5 Z"/></g>
<g><path style="opacity:1" fill="#fefafa" d="M 2024.5,997.5 C 2024.5,1012.83 2024.5,1028.17 2024.5,1043.5C 2028.5,1043.5 2032.5,1043.5 2036.5,1043.5C 2036.5,1028.17 2036.5,1012.83 2036.5,997.5C 2040.17,997.5 2043.83,997.5 2047.5,997.5C 2047.5,1012.83 2047.5,1028.17 2047.5,1043.5C 2051.17,1043.5 2054.83,1043.5 2058.5,1043.5C 2058.5,1028.17 2058.5,1012.83 2058.5,997.5C 2062.5,997.5 2066.5,997.5 2070.5,997.5C 2070.5,1016.5 2070.5,1035.5 2070.5,1054.5C 2051.5,1054.5 2032.5,1054.5 2013.5,1054.5C 2013.5,1046.83 2013.5,1039.17 2013.5,1031.5C 2002.17,1031.5 1990.83,1031.5 1979.5,1031.5C 1979.5,1035.5 1979.5,1039.5 1979.5,1043.5C 1986.83,1043.5 1994.17,1043.5 2001.5,1043.5C 2001.5,1047.17 2001.5,1050.83 2001.5,1054.5C 1990.17,1054.5 1978.83,1054.5 1967.5,1054.5C 1967.5,1043.17 1967.5,1031.83 1967.5,1020.5C 1982.83,1020.5 1998.17,1020.5 2013.5,1020.5C 2013.5,1012.83 2013.5,1005.17 2013.5,997.5C 2017.17,997.5 2020.83,997.5 2024.5,997.5 Z"/></g>
<g><path style="opacity:1" fill="#e75b59" d="M 2024.5,997.5 C 2025.5,1012.32 2025.83,1027.32 2025.5,1042.5C 2028.83,1042.5 2032.17,1042.5 2035.5,1042.5C 2035.17,1027.32 2035.5,1012.32 2036.5,997.5C 2036.5,1012.83 2036.5,1028.17 2036.5,1043.5C 2032.5,1043.5 2028.5,1043.5 2024.5,1043.5C 2024.5,1028.17 2024.5,1012.83 2024.5,997.5 Z"/></g>
<g><path style="opacity:1" fill="#fefefe" d="M 2081.5,997.5 C 2130.83,997.5 2180.17,997.5 2229.5,997.5C 2229.5,1001.17 2229.5,1004.83 2229.5,1008.5C 2180.17,1008.5 2130.83,1008.5 2081.5,1008.5C 2081.5,1004.83 2081.5,1001.17 2081.5,997.5 Z"/></g>
<g><path style="opacity:1" fill="#fefafa" d="M 2241.5,997.5 C 2245.17,997.5 2248.83,997.5 2252.5,997.5C 2252.5,1012.83 2252.5,1028.17 2252.5,1043.5C 2256.17,1043.5 2259.83,1043.5 2263.5,1043.5C 2263.5,1028.17 2263.5,1012.83 2263.5,997.5C 2267.5,997.5 2271.5,997.5 2275.5,997.5C 2275.5,1012.83 2275.5,1028.17 2275.5,1043.5C 2279.17,1043.5 2282.83,1043.5 2286.5,1043.5C 2286.5,1028.17 2286.5,1012.83 2286.5,997.5C 2290.17,997.5 2293.83,997.5 2297.5,997.5C 2297.5,1016.5 2297.5,1035.5 2297.5,1054.5C 2278.5,1054.5 2259.5,1054.5 2240.5,1054.5C 2240.5,1046.83 2240.5,1039.17 2240.5,1031.5C 2229.17,1031.5 2217.83,1031.5 2206.5,1031.5C 2206.5,1035.5 2206.5,1039.5 2206.5,1043.5C 2214.17,1043.5 2221.83,1043.5 2229.5,1043.5C 2229.5,1047.17 2229.5,1050.83 2229.5,1054.5C 2218.17,1054.5 2206.83,1054.5 2195.5,1054.5C 2195.5,1043.17 2195.5,1031.83 2195.5,1020.5C 2210.83,1020.5 2226.17,1020.5 2241.5,1020.5C 2241.5,1012.83 2241.5,1005.17 2241.5,997.5 Z"/></g>
<g><path style="opacity:1" fill="#fefffe" d="M 2456.5,997.5 C 2456.5,1001.17 2456.5,1004.83 2456.5,1008.5C 2407.5,1008.5 2358.5,1008.5 2309.5,1008.5C 2309.5,1004.83 2309.5,1001.17 2309.5,997.5C 2358.5,997.5 2407.5,997.5 2456.5,997.5 Z"/></g>
<g><path style="opacity:1" fill="#fefdfd" d="M 2479.5,997.5 C 2479.5,1012.83 2479.5,1028.17 2479.5,1043.5C 2483.5,1043.5 2487.5,1043.5 2491.5,1043.5C 2491.5,1028.17 2491.5,1012.83 2491.5,997.5C 2495.17,997.5 2498.83,997.5 2502.5,997.5C 2502.5,1012.83 2502.5,1028.17 2502.5,1043.5C 2506.44,1043.79 2510.27,1043.46 2514,1042.5C 2514.5,1027.5 2514.67,1012.5 2514.5,997.5C 2517.83,997.5 2521.17,997.5 2524.5,997.5C 2524.5,1016.17 2524.5,1034.83 2524.5,1053.5C 2505.83,1053.5 2487.17,1053.5 2468.5,1053.5C 2468.5,1046.17 2468.5,1038.83 2468.5,1031.5C 2457.17,1031.5 2445.83,1031.5 2434.5,1031.5C 2434.5,1035.17 2434.5,1038.83 2434.5,1042.5C 2441.65,1043.49 2448.98,1043.82 2456.5,1043.5C 2456.5,1047.17 2456.5,1050.83 2456.5,1054.5C 2445.17,1054.5 2433.83,1054.5 2422.5,1054.5C 2422.5,1043.17 2422.5,1031.83 2422.5,1020.5C 2437.83,1020.5 2453.17,1020.5 2468.5,1020.5C 2468.5,1012.83 2468.5,1005.17 2468.5,997.5C 2472.17,997.5 2475.83,997.5 2479.5,997.5 Z"/></g>
<g><path style="opacity:1" fill="#e75958" d="M 2479.5,997.5 C 2480.5,1012.32 2480.83,1027.32 2480.5,1042.5C 2483.83,1042.5 2487.17,1042.5 2490.5,1042.5C 2490.17,1027.32 2490.5,1012.32 2491.5,997.5C 2491.5,1012.83 2491.5,1028.17 2491.5,1043.5C 2487.5,1043.5 2483.5,1043.5 2479.5,1043.5C 2479.5,1028.17 2479.5,1012.83 2479.5,997.5 Z"/></g>
<g><path style="opacity:1" fill="#e86262" d="M 408.5,997.5 C 409.483,1001.3 409.817,1005.3 409.5,1009.5C 359.997,1009.83 310.664,1009.5 261.5,1008.5C 310.5,1008.5 359.5,1008.5 408.5,1008.5C 408.5,1004.83 408.5,1001.17 408.5,997.5 Z"/></g>
<g><path style="opacity:1" fill="#e96363" d="M 944.5,997.5 C 944.5,1001.17 944.5,1004.83 944.5,1008.5C 993.5,1008.5 1042.5,1008.5 1091.5,1008.5C 1042.34,1009.5 993.003,1009.83 943.5,1009.5C 943.183,1005.3 943.517,1001.3 944.5,997.5 Z"/></g>
<g><path style="opacity:1" fill="#e86262" d="M 2456.5,997.5 C 2457.48,1001.3 2457.82,1005.3 2457.5,1009.5C 2408,1009.83 2358.66,1009.5 2309.5,1008.5C 2358.5,1008.5 2407.5,1008.5 2456.5,1008.5C 2456.5,1004.83 2456.5,1001.17 2456.5,997.5 Z"/></g>
<g><path style="opacity:1" fill="#e75854" d="M 193.5,997.5 C 193.5,1005.17 193.5,1012.83 193.5,1020.5C 178.167,1020.5 162.833,1020.5 147.5,1020.5C 162.324,1019.5 177.324,1019.17 192.5,1019.5C 192.175,1011.98 192.508,1004.65 193.5,997.5 Z"/></g>
<g><path style="opacity:1" fill="#e5504d" d="M 648.5,997.5 C 648.5,1005.17 648.5,1012.83 648.5,1020.5C 633.167,1020.5 617.833,1020.5 602.5,1020.5C 617.324,1019.5 632.324,1019.17 647.5,1019.5C 647.175,1011.98 647.508,1004.65 648.5,997.5 Z"/></g>
<g><path style="opacity:1" fill="#e44747" d="M 1103.5,997.5 C 1103.5,1005.17 1103.5,1012.83 1103.5,1020.5C 1088.17,1020.5 1072.83,1020.5 1057.5,1020.5C 1072.32,1019.5 1087.32,1019.17 1102.5,1019.5C 1102.18,1011.98 1102.51,1004.65 1103.5,997.5 Z"/></g>
<g><path style="opacity:1" fill="#e3403f" d="M 1558.5,997.5 C 1558.5,1005.17 1558.5,1012.83 1558.5,1020.5C 1543.5,1020.5 1528.5,1020.5 1513.5,1020.5C 1513.17,1020.5 1512.83,1020.5 1512.5,1020.5C 1527.32,1019.5 1542.32,1019.17 1557.5,1019.5C 1557.18,1011.98 1557.51,1004.65 1558.5,997.5 Z"/></g>
<g><path style="opacity:1" fill="#e75854" d="M 2241.5,997.5 C 2241.5,1005.17 2241.5,1012.83 2241.5,1020.5C 2226.17,1020.5 2210.83,1020.5 2195.5,1020.5C 2210.32,1019.5 2225.32,1019.17 2240.5,1019.5C 2240.18,1011.98 2240.51,1004.65 2241.5,997.5 Z"/></g>
<g><path style="opacity:1" fill="#fef9f9" d="M 33.5,1020.5 C 52.5,1020.5 71.5,1020.5 90.5,1020.5C 90.5,1028.17 90.5,1035.83 90.5,1043.5C 101.833,1043.5 113.167,1043.5 124.5,1043.5C 124.5,1039.5 124.5,1035.5 124.5,1031.5C 116.833,1031.5 109.167,1031.5 101.5,1031.5C 101.5,1027.83 101.5,1024.17 101.5,1020.5C 113.167,1020.5 124.833,1020.5 136.5,1020.5C 136.5,1031.83 136.5,1043.17 136.5,1054.5C 117.5,1054.5 98.5,1054.5 79.5,1054.5C 79.5,1046.83 79.5,1039.17 79.5,1031.5C 68.1667,1031.5 56.8333,1031.5 45.5,1031.5C 45.5,1039.17 45.5,1046.83 45.5,1054.5C 41.5,1054.5 37.5,1054.5 33.5,1054.5C 33.5,1043.17 33.5,1031.83 33.5,1020.5 Z"/></g>
<g><path style="opacity:1" fill="#fefdfd" d="M 363.5,1053.5 C 344.833,1053.5 326.167,1053.5 307.5,1053.5C 307.825,1045.98 307.492,1038.65 306.5,1031.5C 295.167,1031.5 283.833,1031.5 272.5,1031.5C 272.5,1039.17 272.5,1046.83 272.5,1054.5C 268.833,1054.5 265.167,1054.5 261.5,1054.5C 261.5,1043.17 261.5,1031.83 261.5,1020.5C 280.5,1020.5 299.5,1020.5 318.5,1020.5C 318.5,1028.17 318.5,1035.83 318.5,1043.5C 329.833,1043.5 341.167,1043.5 352.5,1043.5C 352.5,1039.5 352.5,1035.5 352.5,1031.5C 344.833,1031.5 337.167,1031.5 329.5,1031.5C 329.5,1027.83 329.5,1024.17 329.5,1020.5C 340.833,1020.5 352.167,1020.5 363.5,1020.5C 363.5,1031.5 363.5,1042.5 363.5,1053.5 Z"/></g>
<g><path style="opacity:1" fill="#fefafa" d="M 534.5,1054.5 C 534.5,1046.83 534.5,1039.17 534.5,1031.5C 522.988,1031.17 511.654,1031.51 500.5,1032.5C 500.5,1039.83 500.5,1047.17 500.5,1054.5C 496.5,1054.5 492.5,1054.5 488.5,1054.5C 488.5,1043.17 488.5,1031.83 488.5,1020.5C 507.5,1020.5 526.5,1020.5 545.5,1020.5C 545.5,1028.17 545.5,1035.83 545.5,1043.5C 556.833,1043.5 568.167,1043.5 579.5,1043.5C 579.5,1039.5 579.5,1035.5 579.5,1031.5C 572.167,1031.5 564.833,1031.5 557.5,1031.5C 557.5,1027.83 557.5,1024.17 557.5,1020.5C 568.833,1020.5 580.167,1020.5 591.5,1020.5C 591.5,1031.83 591.5,1043.17 591.5,1054.5C 572.5,1054.5 553.5,1054.5 534.5,1054.5 Z"/></g>
<g><path style="opacity:1" fill="#fefdfd" d="M 818.5,1053.5 C 799.833,1053.5 781.167,1053.5 762.5,1053.5C 762.825,1045.98 762.492,1038.65 761.5,1031.5C 750.167,1031.5 738.833,1031.5 727.5,1031.5C 727.5,1039.17 727.5,1046.83 727.5,1054.5C 723.833,1054.5 720.167,1054.5 716.5,1054.5C 716.5,1043.17 716.5,1031.83 716.5,1020.5C 735.5,1020.5 754.5,1020.5 773.5,1020.5C 773.5,1028.17 773.5,1035.83 773.5,1043.5C 784.833,1043.5 796.167,1043.5 807.5,1043.5C 807.5,1039.5 807.5,1035.5 807.5,1031.5C 799.833,1031.5 792.167,1031.5 784.5,1031.5C 784.5,1027.83 784.5,1024.17 784.5,1020.5C 795.833,1020.5 807.167,1020.5 818.5,1020.5C 818.5,1031.5 818.5,1042.5 818.5,1053.5 Z"/></g>
<g><path style="opacity:1" fill="#fefcfc" d="M 1045.5,1020.5 C 1045.5,1031.5 1045.5,1042.5 1045.5,1053.5C 1026.83,1053.5 1008.17,1053.5 989.5,1053.5C 989.5,1046.17 989.5,1038.83 989.5,1031.5C 978.167,1031.5 966.833,1031.5 955.5,1031.5C 955.5,1039.17 955.5,1046.83 955.5,1054.5C 951.5,1054.5 947.5,1054.5 943.5,1054.5C 943.5,1043.17 943.5,1031.83 943.5,1020.5C 962.5,1020.5 981.5,1020.5 1000.5,1020.5C 1000.5,1028.17 1000.5,1035.83 1000.5,1043.5C 1011.83,1043.5 1023.17,1043.5 1034.5,1043.5C 1034.5,1039.5 1034.5,1035.5 1034.5,1031.5C 1027.17,1031.5 1019.83,1031.5 1012.5,1031.5C 1012.5,1027.83 1012.5,1024.17 1012.5,1020.5C 1023.5,1020.5 1034.5,1020.5 1045.5,1020.5 Z"/></g>
<g><path style="opacity:1" fill="#fefcfc" d="M 1216.5,1032.5 C 1205.35,1031.51 1194.01,1031.17 1182.5,1031.5C 1182.5,1039.17 1182.5,1046.83 1182.5,1054.5C 1178.83,1054.5 1175.17,1054.5 1171.5,1054.5C 1171.5,1043.17 1171.5,1031.83 1171.5,1020.5C 1190.5,1020.5 1209.5,1020.5 1228.5,1020.5C 1228.5,1028.17 1228.5,1035.83 1228.5,1043.5C 1239.83,1043.5 1251.17,1043.5 1262.5,1043.5C 1262.5,1039.5 1262.5,1035.5 1262.5,1031.5C 1254.83,1031.5 1247.17,1031.5 1239.5,1031.5C 1239.5,1027.83 1239.5,1024.17 1239.5,1020.5C 1250.83,1020.5 1262.17,1020.5 1273.5,1020.5C 1273.5,1031.83 1273.5,1043.17 1273.5,1054.5C 1254.5,1054.5 1235.5,1054.5 1216.5,1054.5C 1216.5,1047.17 1216.5,1039.83 1216.5,1032.5 Z"/></g>
<g><path style="opacity:1" fill="#fefafa" d="M 1455.5,1020.5 C 1455.5,1028.17 1455.5,1035.83 1455.5,1043.5C 1467.01,1043.83 1478.35,1043.49 1489.5,1042.5C 1489.5,1038.83 1489.5,1035.17 1489.5,1031.5C 1482.17,1031.5 1474.83,1031.5 1467.5,1031.5C 1467.5,1027.83 1467.5,1024.17 1467.5,1020.5C 1478.83,1020.5 1490.17,1020.5 1501.5,1020.5C 1501.5,1031.83 1501.5,1043.17 1501.5,1054.5C 1482.5,1054.5 1463.5,1054.5 1444.5,1054.5C 1444.5,1046.83 1444.5,1039.17 1444.5,1031.5C 1433.17,1031.5 1421.83,1031.5 1410.5,1031.5C 1410.5,1039.17 1410.5,1046.83 1410.5,1054.5C 1406.5,1054.5 1402.5,1054.5 1398.5,1054.5C 1398.5,1043.17 1398.5,1031.83 1398.5,1020.5C 1417.5,1020.5 1436.5,1020.5 1455.5,1020.5 Z"/></g>
<g><path style="opacity:1" fill="#fefdfd" d="M 1626.5,1020.5 C 1645.5,1020.5 1664.5,1020.5 1683.5,1020.5C 1683.5,1028.17 1683.5,1035.83 1683.5,1043.5C 1694.83,1043.5 1706.17,1043.5 1717.5,1043.5C 1717.5,1039.5 1717.5,1035.5 1717.5,1031.5C 1709.83,1031.5 1702.17,1031.5 1694.5,1031.5C 1694.5,1027.83 1694.5,1024.17 1694.5,1020.5C 1705.83,1020.5 1717.17,1020.5 1728.5,1020.5C 1728.5,1031.83 1728.5,1043.17 1728.5,1054.5C 1709.83,1054.5 1691.17,1054.5 1672.5,1054.5C 1672.5,1046.83 1672.5,1039.17 1672.5,1031.5C 1660.83,1031.5 1649.17,1031.5 1637.5,1031.5C 1637.5,1039.17 1637.5,1046.83 1637.5,1054.5C 1633.83,1054.5 1630.17,1054.5 1626.5,1054.5C 1626.5,1043.17 1626.5,1031.83 1626.5,1020.5 Z"/></g>
<g><path style="opacity:1" fill="#fefdfd" d="M 1910.5,1020.5 C 1910.5,1028.17 1910.5,1035.83 1910.5,1043.5C 1922.17,1043.5 1933.83,1043.5 1945.5,1043.5C 1945.82,1039.3 1945.48,1035.3 1944.5,1031.5C 1937.17,1031.5 1929.83,1031.5 1922.5,1031.5C 1922.5,1027.83 1922.5,1024.17 1922.5,1020.5C 1933.83,1020.5 1945.17,1020.5 1956.5,1020.5C 1956.5,1031.83 1956.5,1043.17 1956.5,1054.5C 1937.5,1054.5 1918.5,1054.5 1899.5,1054.5C 1899.5,1046.83 1899.5,1039.17 1899.5,1031.5C 1888.17,1031.5 1876.83,1031.5 1865.5,1031.5C 1865.5,1039.17 1865.5,1046.83 1865.5,1054.5C 1861.83,1054.5 1858.17,1054.5 1854.5,1054.5C 1854.5,1043.17 1854.5,1031.83 1854.5,1020.5C 1873.17,1020.5 1891.83,1020.5 1910.5,1020.5 Z"/></g>
<g><path style="opacity:1" fill="#fef9f9" d="M 2081.5,1020.5 C 2100.5,1020.5 2119.5,1020.5 2138.5,1020.5C 2138.5,1028.17 2138.5,1035.83 2138.5,1043.5C 2149.83,1043.5 2161.17,1043.5 2172.5,1043.5C 2172.5,1039.5 2172.5,1035.5 2172.5,1031.5C 2164.83,1031.5 2157.17,1031.5 2149.5,1031.5C 2149.5,1027.83 2149.5,1024.17 2149.5,1020.5C 2161.17,1020.5 2172.83,1020.5 2184.5,1020.5C 2184.5,1031.83 2184.5,1043.17 2184.5,1054.5C 2165.5,1054.5 2146.5,1054.5 2127.5,1054.5C 2127.5,1046.83 2127.5,1039.17 2127.5,1031.5C 2116.17,1031.5 2104.83,1031.5 2093.5,1031.5C 2093.5,1039.17 2093.5,1046.83 2093.5,1054.5C 2089.5,1054.5 2085.5,1054.5 2081.5,1054.5C 2081.5,1043.17 2081.5,1031.83 2081.5,1020.5 Z"/></g>
<g><path style="opacity:1" fill="#fefdfd" d="M 2411.5,1053.5 C 2392.83,1053.5 2374.17,1053.5 2355.5,1053.5C 2355.82,1045.98 2355.49,1038.65 2354.5,1031.5C 2343.17,1031.5 2331.83,1031.5 2320.5,1031.5C 2320.5,1039.17 2320.5,1046.83 2320.5,1054.5C 2316.83,1054.5 2313.17,1054.5 2309.5,1054.5C 2309.5,1043.17 2309.5,1031.83 2309.5,1020.5C 2328.5,1020.5 2347.5,1020.5 2366.5,1020.5C 2366.5,1028.17 2366.5,1035.83 2366.5,1043.5C 2377.83,1043.5 2389.17,1043.5 2400.5,1043.5C 2400.5,1039.5 2400.5,1035.5 2400.5,1031.5C 2392.83,1031.5 2385.17,1031.5 2377.5,1031.5C 2377.5,1027.83 2377.5,1024.17 2377.5,1020.5C 2388.83,1020.5 2400.17,1020.5 2411.5,1020.5C 2411.5,1031.5 2411.5,1042.5 2411.5,1053.5 Z"/></g>
<g><path style="opacity:1" fill="#e02a29" d="M 500.5,1032.5 C 511.654,1031.51 522.988,1031.17 534.5,1031.5C 534.5,1039.17 534.5,1046.83 534.5,1054.5C 533.508,1047.35 533.175,1040.02 533.5,1032.5C 522.5,1032.5 511.5,1032.5 500.5,1032.5 Z"/></g>
<g><path style="opacity:1" fill="#e12f2c" d="M 1216.5,1032.5 C 1205.5,1032.5 1194.5,1032.5 1183.5,1032.5C 1183.82,1040.02 1183.49,1047.35 1182.5,1054.5C 1182.5,1046.83 1182.5,1039.17 1182.5,1031.5C 1194.01,1031.17 1205.35,1031.51 1216.5,1032.5 Z"/></g>
<g><path style="opacity:1" fill="#e02a29" d="M 1524.5,1032.5 C 1535.65,1031.51 1546.99,1031.17 1558.5,1031.5C 1558.5,1039.17 1558.5,1046.83 1558.5,1054.5C 1557.51,1047.35 1557.18,1040.02 1557.5,1032.5C 1546.5,1032.5 1535.5,1032.5 1524.5,1032.5 Z"/></g>
<g><path style="opacity:1" fill="#ed8382" d="M 386.5,1042.5 C 394.167,1042.5 401.833,1042.5 409.5,1042.5C 409.817,1046.7 409.483,1050.7 408.5,1054.5C 408.5,1050.83 408.5,1047.17 408.5,1043.5C 400.981,1043.82 393.648,1043.49 386.5,1042.5 Z"/></g>
<g><path style="opacity:1" fill="#eb7a7a" d="M 614.5,1031.5 C 614.5,1035.17 614.5,1038.83 614.5,1042.5C 622.019,1042.18 629.352,1042.51 636.5,1043.5C 628.833,1043.5 621.167,1043.5 613.5,1043.5C 613.183,1039.3 613.517,1035.3 614.5,1031.5 Z"/></g>
<g><path style="opacity:1" fill="#eb7574" d="M 1455.5,1020.5 C 1456.49,1027.65 1456.82,1034.98 1456.5,1042.5C 1467.5,1042.5 1478.5,1042.5 1489.5,1042.5C 1478.35,1043.49 1467.01,1043.83 1455.5,1043.5C 1455.5,1035.83 1455.5,1028.17 1455.5,1020.5 Z"/></g>
<g><path style="opacity:1" fill="#eb7b7a" d="M 1910.5,1020.5 C 1911.49,1027.65 1911.82,1034.98 1911.5,1042.5C 1922.5,1042.5 1933.5,1042.5 1944.5,1042.5C 1944.5,1038.83 1944.5,1035.17 1944.5,1031.5C 1945.48,1035.3 1945.82,1039.3 1945.5,1043.5C 1933.83,1043.5 1922.17,1043.5 1910.5,1043.5C 1910.5,1035.83 1910.5,1028.17 1910.5,1020.5 Z"/></g>
<g><path style="opacity:1" fill="#ed8382" d="M 2434.5,1042.5 C 2442.17,1042.5 2449.83,1042.5 2457.5,1042.5C 2457.82,1046.7 2457.48,1050.7 2456.5,1054.5C 2456.5,1050.83 2456.5,1047.17 2456.5,1043.5C 2448.98,1043.82 2441.65,1043.49 2434.5,1042.5 Z"/></g>
<g><path style="opacity:1" fill="#fefcfc" d="M 56.5,1043.5 C 60.1667,1043.5 63.8333,1043.5 67.5,1043.5C 67.5,1047.17 67.5,1050.83 67.5,1054.5C 63.8333,1054.5 60.1667,1054.5 56.5,1054.5C 56.5,1050.83 56.5,1047.17 56.5,1043.5 Z"/></g>
<g><path style="opacity:1" fill="#fef1f0" d="M 283.5,1043.5 C 287.5,1043.5 291.5,1043.5 295.5,1043.5C 295.5,1047.17 295.5,1050.83 295.5,1054.5C 291.5,1054.5 287.5,1054.5 283.5,1054.5C 283.5,1050.83 283.5,1047.17 283.5,1043.5 Z"/></g>
<g><path style="opacity:1" fill="#fefcfc" d="M 511.5,1043.5 C 515.167,1043.5 518.833,1043.5 522.5,1043.5C 522.5,1047.17 522.5,1050.83 522.5,1054.5C 518.833,1054.5 515.167,1054.5 511.5,1054.5C 511.5,1050.83 511.5,1047.17 511.5,1043.5 Z"/></g>
<g><path style="opacity:1" fill="#fefbfb" d="M 739.5,1043.5 C 743.167,1043.5 746.833,1043.5 750.5,1043.5C 750.5,1047.17 750.5,1050.83 750.5,1054.5C 746.833,1054.5 743.167,1054.5 739.5,1054.5C 739.5,1050.83 739.5,1047.17 739.5,1043.5 Z"/></g>
<g><path style="opacity:1" fill="#fefafa" d="M 966.5,1043.5 C 970.167,1043.5 973.833,1043.5 977.5,1043.5C 977.5,1047.17 977.5,1050.83 977.5,1054.5C 973.833,1054.5 970.167,1054.5 966.5,1054.5C 966.5,1050.83 966.5,1047.17 966.5,1043.5 Z"/></g>
<g><path style="opacity:1" fill="#fefcfc" d="M 1194.5,1043.5 C 1198.17,1043.5 1201.83,1043.5 1205.5,1043.5C 1205.5,1047.17 1205.5,1050.83 1205.5,1054.5C 1201.83,1054.5 1198.17,1054.5 1194.5,1054.5C 1194.5,1050.83 1194.5,1047.17 1194.5,1043.5 Z"/></g>
<g><path style="opacity:1" fill="#fef9f9" d="M 1421.5,1043.5 C 1425.17,1043.5 1428.83,1043.5 1432.5,1043.5C 1432.5,1047.17 1432.5,1050.83 1432.5,1054.5C 1432.5,1050.83 1432.5,1047.17 1432.5,1043.5C 1428.83,1043.5 1425.17,1043.5 1421.5,1043.5 Z"/></g>
<g><path style="opacity:1" fill="#ee8d8d" d="M 1421.5,1043.5 C 1425.3,1042.52 1429.3,1042.18 1433.5,1042.5C 1433.82,1046.7 1433.48,1050.7 1432.5,1054.5C 1432.5,1050.83 1432.5,1047.17 1432.5,1043.5C 1428.83,1043.5 1425.17,1043.5 1421.5,1043.5 Z"/></g>
<g><path style="opacity:1" fill="#fefcfc" d="M 1649.5,1043.5 C 1653.17,1043.5 1656.83,1043.5 1660.5,1043.5C 1660.5,1047.17 1660.5,1050.83 1660.5,1054.5C 1656.83,1054.5 1653.17,1054.5 1649.5,1054.5C 1649.5,1050.83 1649.5,1047.17 1649.5,1043.5 Z"/></g>
<g><path style="opacity:1" fill="#f19f9e" d="M 1887.5,1054.5 C 1887.5,1050.83 1887.5,1047.17 1887.5,1043.5C 1884.17,1043.5 1880.83,1043.5 1877.5,1043.5C 1877.5,1047.17 1877.5,1050.83 1877.5,1054.5C 1876.52,1050.7 1876.18,1046.7 1876.5,1042.5C 1880.5,1042.5 1884.5,1042.5 1888.5,1042.5C 1888.82,1046.7 1888.48,1050.7 1887.5,1054.5 Z"/></g>
<g><path style="opacity:1" fill="#fefcfc" d="M 1887.5,1054.5 C 1884.17,1054.5 1880.83,1054.5 1877.5,1054.5C 1877.5,1050.83 1877.5,1047.17 1877.5,1043.5C 1880.83,1043.5 1884.17,1043.5 1887.5,1043.5C 1887.5,1047.17 1887.5,1050.83 1887.5,1054.5 Z"/></g>
<g><path style="opacity:1" fill="#fefcfc" d="M 2104.5,1043.5 C 2108.17,1043.5 2111.83,1043.5 2115.5,1043.5C 2115.5,1047.17 2115.5,1050.83 2115.5,1054.5C 2111.83,1054.5 2108.17,1054.5 2104.5,1054.5C 2104.5,1050.83 2104.5,1047.17 2104.5,1043.5 Z"/></g>
<g><path style="opacity:1" fill="#fef1f0" d="M 2331.5,1043.5 C 2335.5,1043.5 2339.5,1043.5 2343.5,1043.5C 2343.5,1047.17 2343.5,1050.83 2343.5,1054.5C 2339.5,1054.5 2335.5,1054.5 2331.5,1054.5C 2331.5,1050.83 2331.5,1047.17 2331.5,1043.5 Z"/></g>
<g><path style="opacity:1" fill="#fadcdc" d="M 306.5,1031.5 C 307.492,1038.65 307.825,1045.98 307.5,1053.5C 326.167,1053.5 344.833,1053.5 363.5,1053.5C 344.674,1054.5 325.674,1054.83 306.5,1054.5C 306.5,1046.83 306.5,1039.17 306.5,1031.5 Z"/></g>
<g><path style="opacity:1" fill="#fae0e0" d="M 476.5,997.5 C 477.497,1016.33 477.83,1035.33 477.5,1054.5C 458.326,1054.83 439.326,1054.5 420.5,1053.5C 439.167,1053.5 457.833,1053.5 476.5,1053.5C 476.5,1034.83 476.5,1016.17 476.5,997.5 Z"/></g>
<g><path style="opacity:1" fill="#f9d6d6" d="M 761.5,1031.5 C 762.492,1038.65 762.825,1045.98 762.5,1053.5C 781.167,1053.5 799.833,1053.5 818.5,1053.5C 799.674,1054.5 780.674,1054.83 761.5,1054.5C 761.5,1046.83 761.5,1039.17 761.5,1031.5 Z"/></g>
<g><path style="opacity:1" fill="#f9d8d8" d="M 1045.5,1020.5 C 1046.49,1031.65 1046.83,1042.99 1046.5,1054.5C 1027.33,1054.83 1008.33,1054.5 989.5,1053.5C 1008.17,1053.5 1026.83,1053.5 1045.5,1053.5C 1045.5,1042.5 1045.5,1031.5 1045.5,1020.5 Z"/></g>
<g><path style="opacity:1" fill="#fadcdc" d="M 1330.5,1031.5 C 1331.49,1038.65 1331.82,1045.98 1331.5,1053.5C 1350.17,1053.5 1368.83,1053.5 1387.5,1053.5C 1368.67,1054.5 1349.67,1054.83 1330.5,1054.5C 1330.5,1046.83 1330.5,1039.17 1330.5,1031.5 Z"/></g>
<g><path style="opacity:1" fill="#f9d6d6" d="M 1512.5,1020.5 C 1512.83,1020.5 1513.17,1020.5 1513.5,1020.5C 1513.5,1031.5 1513.5,1042.5 1513.5,1053.5C 1524.5,1053.5 1535.5,1053.5 1546.5,1053.5C 1535.35,1054.49 1524.01,1054.83 1512.5,1054.5C 1512.5,1043.17 1512.5,1031.83 1512.5,1020.5 Z"/></g>
<g><path style="opacity:1" fill="#f9d6d6" d="M 1785.5,1031.5 C 1786.49,1038.65 1786.82,1045.98 1786.5,1053.5C 1805.17,1053.5 1823.83,1053.5 1842.5,1053.5C 1823.67,1054.5 1804.67,1054.83 1785.5,1054.5C 1785.5,1046.83 1785.5,1039.17 1785.5,1031.5 Z"/></g>
<g><path style="opacity:1" fill="#fadcdc" d="M 2354.5,1031.5 C 2355.49,1038.65 2355.82,1045.98 2355.5,1053.5C 2374.17,1053.5 2392.83,1053.5 2411.5,1053.5C 2392.67,1054.5 2373.67,1054.83 2354.5,1054.5C 2354.5,1046.83 2354.5,1039.17 2354.5,1031.5 Z"/></g>
<g><path style="opacity:1" fill="#fae0e0" d="M 2524.5,997.5 C 2525.5,1016.33 2525.83,1035.33 2525.5,1054.5C 2506.33,1054.83 2487.33,1054.5 2468.5,1053.5C 2487.17,1053.5 2505.83,1053.5 2524.5,1053.5C 2524.5,1034.83 2524.5,1016.17 2524.5,997.5 Z"/></g>
</svg>
